<?xml version="1.0" encoding="utf-8"?>
<!-- Generator: Adobe Illustrator 25.2.1, SVG Export Plug-In . SVG Version: 6.00 Build 0)  -->
<svg version="1.1" id="Layer_3" xmlns="http://www.w3.org/2000/svg" xmlns:xlink="http://www.w3.org/1999/xlink" x="0px" y="0px"
	 viewBox="0 0 55 55" style="enable-background:new 0 0 55 55;" xml:space="preserve">
<style type="text/css">
	.st0{fill:#FFFFFF;}
	.st1{fill:#0095BE;}
</style>
<g>
	<circle class="st0" cx="27.5" cy="27.5" r="25"/>
	<path class="st0" d="M27.5,55C12.3,55,0,42.7,0,27.5C0,12.3,12.3,0,27.5,0C42.7,0,55,12.3,55,27.5C55,42.7,42.7,55,27.5,55z
		 M27.5,5C15.1,5,5,15.1,5,27.5C5,39.9,15.1,50,27.5,50C39.9,50,50,39.9,50,27.5C50,15.1,39.9,5,27.5,5z"/>
</g>
<g>
	<path class="st1" d="M31.3,11.4c-0.1,0-0.2,0-0.2,0c0.1,0.2,0.2,0.3,0.3,0.5c0.3,0.5,0.5,0.7,0.8,1.2c0.2,0.3-0.7,0.7-0.8,0.5
		c-0.9-0.9-1.7-1.9-2.2-3c-0.2-0.4,1-0.8,1.9-1.4c0.5-0.3,1-0.8,1.4-0.8c0.4,0,0.7,0.5,0.7,0.8c-0.1,0.6-1.5,0.6-1.5,1
		c0,0.6,3.4,0.6,6.4,2.7c0.9,0.6,1.4,1.1,2.4,2.2c2.5,2.7,3.8,4.7,4.6,8c0.2,0.9,0.2,1.4,0.2,2.4c0,0.3-0.6,0.4-0.8,0.3
		C44,25.7,44,25,43.9,24.1c-0.1-0.8-0.5-1.6-0.7-2.4c-0.4-1.2-1.7-4.2-4.4-6.6c0,0-2.1-1.9-6.6-3.6C31.8,11.5,31.6,11.5,31.3,11.4z"
		/>
	<path class="st1" d="M44.6,26.3c-0.1,0-0.3,0-0.4-0.1c-0.5-0.2-0.6-0.8-0.7-1.5c0-0.2,0-0.3-0.1-0.5c-0.1-0.5-0.2-1-0.4-1.5
		c-0.1-0.3-0.2-0.6-0.3-0.9c-0.4-1.3-1.7-4.1-4.3-6.4c0,0-2.1-1.9-6.4-3.5h-0.1c0.1,0.1,0.2,0.2,0.2,0.3c0.1,0.2,0.3,0.3,0.4,0.6
		c0.1,0.2,0.2,0.6-0.2,0.9c-0.3,0.2-0.9,0.4-1.2,0.1c-1-0.9-1.7-2-2.3-3.2c-0.3-0.6,0.5-1,1.3-1.5c0.2-0.1,0.5-0.3,0.7-0.4
		c0.2-0.1,0.3-0.2,0.5-0.4C31.8,8.2,32.1,8,32.5,8c0.3,0,0.6,0.1,0.8,0.4c0.2,0.3,0.3,0.6,0.3,0.9c-0.1,0.6-0.7,0.8-1.2,1
		c0.2,0.1,0.5,0.1,0.8,0.2c1.3,0.4,3.3,0.9,5.1,2.2c0.9,0.6,1.4,1.2,2.4,2.2l0.1,0.1c2.7,2.9,3.9,5,4.7,8.1c0.2,0.8,0.2,1.3,0.2,1.9
		c0,0.2,0,0.4,0,0.6s-0.1,0.4-0.3,0.6C45.1,26.2,44.8,26.3,44.6,26.3z M31.1,11C31.2,11,31.2,11,31.1,11c0.1,0,0.1,0,0.1,0h0.1
		c0.2,0,0.4,0.1,0.6,0.1c0.1,0,0.2,0,0.3,0.1h0.1c4.5,1.6,6.6,3.6,6.7,3.6c2.7,2.4,4.1,5.4,4.5,6.8c0.1,0.3,0.2,0.6,0.3,0.8
		c0.2,0.5,0.3,1,0.4,1.6c0,0.2,0.1,0.4,0.1,0.6c0,0.3,0.1,0.7,0.2,0.8c0.1,0,0.2,0,0.3,0c0-0.2,0-0.3,0-0.5c0-0.6,0-1-0.2-1.7
		c-0.8-3-1.9-5-4.5-7.8L40,15.3c-0.9-1-1.4-1.5-2.2-2.1c-1.7-1.2-3.6-1.7-4.9-2c-1.1-0.3-1.7-0.5-1.7-1c0-0.4,0.5-0.6,0.9-0.7
		c0.2-0.1,0.6-0.2,0.7-0.3c0,0,0-0.2-0.1-0.3s-0.1-0.1-0.2-0.1c-0.1,0-0.4,0.2-0.6,0.4c-0.2,0.1-0.4,0.3-0.6,0.4
		c-0.2,0.2-0.5,0.3-0.8,0.4c-0.3,0.2-0.7,0.4-0.9,0.5c0.5,1,1.2,1.9,2,2.7c0.1,0,0.1,0,0.2-0.1c-0.1-0.2-0.2-0.3-0.3-0.4
		c-0.1-0.2-0.3-0.3-0.4-0.6c-0.1-0.2-0.2-0.3-0.4-0.5l-0.1-0.1v-0.3l0.1-0.1C30.9,11,31,11,31.1,11z"/>
</g>
<g>
	<polygon class="st1" points="27.1,19.1 23.7,28.8 28,27.7 27.5,34.6 31.2,24.8 26.7,25.9 	"/>
	<path class="st1" d="M26.9,37.3l0.7-9.1L23,29.4l4.7-13.1l-0.6,9.1l4.7-1.2L26.9,37.3z M28.5,27.2l-0.4,4.6l2.4-6.4l-4.3,1.1
		l0.3-4.6l-2.3,6.4L28.5,27.2z"/>
</g>
<g>
	<path class="st1" d="M11.5,23.5c0,0.1,0,0.2,0,0.2c0.2-0.1,0.3-0.2,0.5-0.4c0.5-0.4,0.7-0.5,1.2-0.9c0.3-0.2,0.7,0.7,0.5,0.8
		c-0.8,0.9-1.9,1.7-3,2.3c-0.4,0.2-0.9-1-1.4-1.8c-0.3-0.5-0.9-1-0.9-1.3c0-0.4,0.5-0.7,0.8-0.7c0.6,0.1,0.7,1.5,1.1,1.5
		c0.6,0,0.5-3.4,2.5-6.5c0.6-0.9,1.1-1.4,2.1-2.4c2.6-2.6,4.6-3.9,7.8-4.8c0.9-0.3,1.4-0.2,2.4-0.2c0.3,0,0.5,0.6,0.4,0.8
		c-0.1,0.4-0.8,0.4-1.7,0.6c-0.8,0.2-1.6,0.5-2.4,0.8c-1.2,0.4-4.1,1.8-6.5,4.6c0,0-1.9,2.2-3.4,6.7C11.6,22.9,11.5,23.2,11.5,23.5z
		"/>
	<path class="st1" d="M10.6,26c-0.5,0-0.8-0.6-1.2-1.3C9.3,24.5,9.1,24.2,9,24c-0.1-0.2-0.3-0.3-0.4-0.5c-0.3-0.4-0.6-0.7-0.6-1
		s0.1-0.5,0.3-0.8c0.3-0.2,0.6-0.4,0.9-0.3c0.6,0.1,0.8,0.7,1,1.1c0.1-0.2,0.1-0.5,0.2-0.8c0.3-1.3,0.8-3.3,2-5.2
		c0.6-0.9,1.1-1.4,2-2.3l0.2-0.2c2.8-2.8,4.9-4,8-4.9c0.7-0.2,1.3-0.2,1.9-0.2c0.2,0,0.4,0,0.6,0s0.4,0.1,0.6,0.3
		c0.2,0.3,0.3,0.8,0.2,1.1c-0.2,0.5-0.8,0.6-1.4,0.7c-0.2,0-0.4,0.1-0.6,0.1c-0.5,0.1-1,0.3-1.5,0.5c-0.3,0.1-0.5,0.2-0.8,0.3
		c-1.3,0.4-4,1.8-6.3,4.5c0,0-1.8,2.2-3.3,6.5c0,0,0,0,0,0.1c0.1-0.1,0.2-0.2,0.3-0.3c0.2-0.1,0.3-0.3,0.6-0.5
		c0.2-0.1,0.5-0.2,0.8,0.2c0.2,0.2,0.6,0.9,0.2,1.2c-0.9,1-1.9,1.8-3.1,2.4C10.8,25.9,10.7,26,10.6,26z M9.2,22.1c0,0-0.2,0-0.3,0.1
		s-0.1,0.1-0.1,0.1l0,0c0,0.1,0.2,0.4,0.4,0.5c0.1,0.2,0.3,0.4,0.4,0.6c0.2,0.2,0.3,0.5,0.4,0.7c0.2,0.3,0.4,0.7,0.6,0.9
		c1-0.5,1.9-1.2,2.7-2.1c0-0.1-0.1-0.1-0.1-0.2c-0.2,0.1-0.3,0.2-0.4,0.3c-0.2,0.1-0.3,0.3-0.6,0.4c-0.2,0.2-0.4,0.3-0.6,0.4
		l-0.1,0.1h-0.3l-0.1-0.1C11,23.7,11,23.5,11,23.4l0,0l0,0c0-0.2,0-0.3,0.1-0.5c0-0.1,0-0.2,0-0.3l0,0l0,0c1.5-4.5,3.4-6.8,3.4-6.9
		c2.4-2.8,5.3-4.3,6.6-4.7c0.3-0.1,0.5-0.2,0.8-0.3c0.5-0.2,1.1-0.4,1.6-0.5c0.2,0,0.4-0.1,0.6-0.1c0.5-0.1,0.9-0.1,1-0.2
		c0-0.1,0-0.2,0-0.3c-0.2,0-0.4,0-0.5,0c-0.6,0-1,0-1.7,0.2c-3,0.8-4.9,2-7.6,4.7L15,14.7c-0.9,0.9-1.4,1.4-1.9,2.2
		c-1.1,1.8-1.6,3.7-1.9,5c-0.3,1.1-0.4,1.8-1,1.8c-0.4,0-0.6-0.4-0.7-0.8C9.5,22.6,9.3,22.1,9.2,22.1L9.2,22.1z M13.4,22.7
		L13.4,22.7L13.4,22.7z M25.1,9.6L25.1,9.6L25.1,9.6z"/>
</g>
<g>
	<path class="st1" d="M24.2,43.5c0.1,0,0.2,0,0.2,0c-0.1-0.2-0.2-0.4-0.3-0.5c-0.3-0.5-0.5-0.7-0.8-1.2c-0.2-0.3,0.7-0.7,0.9-0.5
		c0.9,0.9,1.6,2,2.1,3.1c0.2,0.4-1,0.8-1.9,1.3c-0.5,0.3-1.1,0.8-1.4,0.8c-0.4,0-0.7-0.5-0.6-0.9c0.1-0.6,1.5-0.6,1.6-1
		c0.1-0.6-3.4-0.8-6.3-3c-0.9-0.6-1.3-1.2-2.3-2.3c-2.4-2.8-3.6-4.9-4.3-8.1c-0.2-0.9-0.1-1.4-0.1-2.4c0-0.3,0.6-0.4,0.9-0.3
		c0.4,0.2,0.3,0.8,0.4,1.7c0.1,0.8,0.4,1.6,0.6,2.4c0.3,1.3,1.5,4.2,4.1,6.8c0,0,2.1,2,6.5,3.8C23.6,43.4,23.9,43.4,24.2,43.5z"/>
	<path class="st1" d="M22.9,46.9L22.9,46.9c-0.3,0-0.6-0.2-0.8-0.4c-0.2-0.3-0.3-0.6-0.2-0.9c0.1-0.6,0.7-0.8,1.2-0.9l0,0
		c-0.2-0.1-0.5-0.2-0.8-0.3c-1.3-0.4-3.2-1-5-2.3c-0.8-0.6-1.3-1.2-2.2-2.2l-0.2-0.2c-2.6-3-3.7-5.1-4.3-8.3
		c-0.2-0.8-0.1-1.3-0.1-1.9c0-0.2,0-0.4,0-0.6s0.1-0.4,0.3-0.6c0.3-0.2,0.8-0.2,1.1-0.1c0.5,0.2,0.6,0.8,0.6,1.6c0,0.1,0,0.3,0,0.5
		c0.1,0.5,0.2,0.9,0.3,1.4c0.1,0.3,0.2,0.6,0.2,0.9c0.3,1.2,1.5,4.1,4,6.6c0,0,2.1,2,6.3,3.7c0,0,0,0,0.1,0
		c-0.1-0.1-0.2-0.2-0.2-0.3c-0.1-0.2-0.2-0.4-0.4-0.6c-0.1-0.2-0.2-0.5,0.2-0.8c0.3-0.2,0.9-0.5,1.3-0.1c0.9,0.9,1.6,2,2.1,3.2
		c0.3,0.7-0.5,1-1.4,1.4c-0.2,0.1-0.5,0.2-0.7,0.4c-0.2,0.1-0.4,0.2-0.5,0.4C23.5,46.7,23.2,46.9,22.9,46.9z M11.3,28.9
		c0,0.2,0,0.3,0,0.5c0,0.6,0,1.1,0.1,1.7c0.6,3.1,1.7,5.1,4.2,8l0.2,0.2c0.9,1,1.3,1.5,2.1,2.1c1.7,1.3,3.6,1.8,4.8,2.2
		c1.1,0.3,1.7,0.5,1.7,1.1c0,0.4-0.5,0.6-0.9,0.7c-0.2,0.1-0.6,0.2-0.7,0.3c0,0.1,0,0.2,0.1,0.3s0.1,0.1,0.2,0.1s0.4-0.2,0.6-0.3
		s0.4-0.3,0.6-0.4c0.2-0.1,0.5-0.3,0.8-0.4c0.3-0.2,0.8-0.4,0.9-0.5c-0.5-1.1-1.1-2-1.9-2.8c-0.1,0-0.1,0-0.2,0.1
		c0.1,0.2,0.2,0.3,0.3,0.4c0.1,0.2,0.2,0.4,0.4,0.6c0.1,0.2,0.2,0.4,0.3,0.6l0.1,0.3l-0.2,0.2c-0.2,0.2-0.5,0.1-0.6,0.1l0,0
		c-0.3-0.1-0.6-0.1-0.9-0.2l0,0c-4.4-1.8-6.5-3.8-6.6-3.9c-2.7-2.6-3.9-5.6-4.3-7c-0.1-0.3-0.1-0.6-0.2-0.9c-0.1-0.5-0.3-1-0.4-1.6
		c0-0.2,0-0.3,0-0.5c0-0.4-0.1-0.8-0.2-0.9C11.5,28.9,11.4,28.9,11.3,28.9z M24.3,43.1L24.3,43.1L24.3,43.1z M23.8,41.5L23.8,41.5
		L23.8,41.5z M23.6,41.5L23.6,41.5L23.6,41.5z M11.3,28.9L11.3,28.9L11.3,28.9z"/>
</g>
<g>
	<path class="st1" d="M43.8,31.1c0-0.1,0-0.2,0-0.2c-0.2,0.1-0.4,0.2-0.5,0.3c-0.5,0.3-0.7,0.5-1.2,0.8c-0.3,0.2-0.6-0.7-0.5-0.9
		c0.9-0.9,2-1.6,3.2-2c0.4-0.2,0.8,1.1,1.3,1.9c0.3,0.5,0.8,1.1,0.8,1.4c0,0.4-0.5,0.7-0.9,0.6c-0.6-0.1-0.6-1.5-0.9-1.6
		c-0.6-0.1-0.8,3.4-3,6.3c-0.6,0.8-1.2,1.3-2.3,2.3c-2.8,2.4-4.9,3.5-8.2,4.2c-0.9,0.2-1.4,0.1-2.4,0.1c-0.3,0-0.4-0.6-0.3-0.9
		c0.2-0.4,0.8-0.3,1.7-0.4c0.8-0.1,1.6-0.4,2.4-0.6c1.3-0.3,4.2-1.5,6.8-4.1c0,0,2-2.1,3.9-6.4C43.7,31.6,43.8,31.4,43.8,31.1z"/>
	<path class="st1" d="M30.4,44.7c-0.2,0-0.4,0-0.7,0c-0.2,0-0.4,0-0.6,0s-0.4-0.1-0.6-0.4c-0.2-0.3-0.2-0.8-0.1-1.1
		c0.2-0.5,0.8-0.5,1.5-0.6c0.2,0,0.3,0,0.5,0c0.5-0.1,1-0.2,1.5-0.3c0.3-0.1,0.6-0.2,0.9-0.2c1.2-0.3,4.1-1.4,6.6-4
		c0,0,2-2.1,3.8-6.3l0,0c-0.1,0.1-0.2,0.1-0.3,0.2c-0.2,0.1-0.4,0.3-0.7,0.4c-0.2,0.1-0.5,0.1-0.8-0.2c-0.2-0.3-0.5-1-0.1-1.3
		c1-0.9,2.1-1.6,3.3-2.1c0.6-0.3,1,0.5,1.4,1.4c0.1,0.2,0.2,0.5,0.3,0.7s0.2,0.4,0.4,0.6c0.3,0.4,0.5,0.7,0.5,1.1
		c0,0.3-0.2,0.5-0.4,0.7c-0.3,0.2-0.6,0.3-0.9,0.3c-0.6-0.1-0.8-0.8-0.9-1.2c-0.1,0.2-0.2,0.5-0.3,0.8c-0.4,1.3-1,3.2-2.4,5
		c-0.7,0.9-1.2,1.4-2.4,2.3c-3.1,2.5-5.2,3.7-8.4,4.2C31.1,44.7,30.7,44.7,30.4,44.7z M29.1,43.9c0.2,0,0.4,0,0.6,0
		c0.6,0,1,0,1.6-0.1c3-0.6,5-1.6,8-4.1c1.1-0.9,1.6-1.4,2.3-2.2c1.3-1.7,1.9-3.6,2.3-4.8c0.4-1.1,0.6-1.7,1.1-1.7
		c0.4,0.1,0.5,0.5,0.7,0.9c0.1,0.2,0.2,0.7,0.3,0.7c0,0,0.2,0,0.3-0.1s0.1-0.1,0.1-0.2c0-0.1-0.2-0.4-0.3-0.6s-0.3-0.4-0.4-0.6
		c-0.1-0.2-0.2-0.5-0.4-0.7c-0.1-0.3-0.4-0.8-0.5-1c-1,0.4-2,1.1-2.8,1.8c0,0.1,0,0.1,0.1,0.2c0.2-0.1,0.3-0.2,0.5-0.3
		c0.2-0.1,0.3-0.2,0.5-0.4c0.2-0.2,0.4-0.3,0.6-0.4h0.1H44l0.1,0.1c0.1,0.1,0.1,0.3,0.1,0.4l0,0v0.1c0,0.3-0.1,0.6-0.2,0.9l0,0
		c-1.8,4.4-3.9,6.5-4,6.5c-2.7,2.7-5.7,3.9-7,4.2c-0.3,0.1-0.6,0.1-0.8,0.2c-0.5,0.1-1.1,0.3-1.6,0.4c-0.2,0-0.4,0-0.6,0.1
		c-0.3,0-0.8,0.1-0.9,0.1C29.1,43.6,29.1,43.8,29.1,43.9z M41.9,31.7L41.9,31.7L41.9,31.7z M41.9,31.4L41.9,31.4L41.9,31.4z"/>
</g>
</svg>
