<?xml version="1.0" encoding="utf-8"?>
<!-- Generator: Adobe Illustrator 25.2.1, SVG Export Plug-In . SVG Version: 6.00 Build 0)  -->
<svg version="1.1" id="Layer_1" xmlns="http://www.w3.org/2000/svg" xmlns:xlink="http://www.w3.org/1999/xlink" x="0px" y="0px"
	 viewBox="0 0 55 55" style="enable-background:new 0 0 55 55;" xml:space="preserve">
<style type="text/css">
	.st0{fill:#FFFFFF;}
	.st1{fill:#0095BE;}
</style>
<g id="Layer_1_1_">
	<g>
		<circle class="st0" cx="27.5" cy="27.5" r="25"/>
		<path class="st0" d="M27.5,55C12.3,55,0,42.7,0,27.5C0,12.3,12.3,0,27.5,0C42.7,0,55,12.3,55,27.5C55,42.7,42.7,55,27.5,55z
			 M27.5,5C15.1,5,5,15.1,5,27.5C5,39.9,15.1,50,27.5,50C39.9,50,50,39.9,50,27.5C50,15.1,39.9,5,27.5,5z"/>
	</g>
</g>
<g id="Layer_3">
	<path class="st1" d="M22.8,50.5h-1c0-0.3,0-0.7,0-1.3c0.1-2.2,0.3-6.9,0-13.1c0-0.4-0.2-0.6-0.8-1c-0.5-0.4-1.2-0.9-1.9-1.9
		c-2-2.8-2.3-7.3-1.2-8.8c0.5-0.7,1.3-0.5,1.9-0.5c0.4,0.1,0.8,0.1,1,0c0.2-0.2,0.2-0.5,0.1-1.2c-0.1-0.9-0.3-2,0.2-3.3
		c0.2-0.5,0.7-1.7,1.8-1.9c0.9-0.2,2,0.4,2.2,0.9l0,0c0,0.1,0.1,0.2,0.1,0.2c0.2-0.4,0.4-0.7,0.8-0.9c0.6-0.3,1.4-0.3,2-0.1
		c0.4,0.1,0.6,0.3,0.7,0.5c0,0.1,0.1,0.1,0.1,0.2c0.2-0.2,0.4-0.4,0.6-0.6c0.7-0.5,1.9-0.5,2.6-0.2c0.2,0.1,0.3,0.2,0.5,0.2
		c0.3-0.4,0.7-0.5,1-0.5s0.5,0,0.8,0.1c1.1,0.2,1.9,1,2,2.1c0.4,3.9,0.6,7.8,0.7,11.7c0,1.4-0.7,2.2-1.4,2.8c-0.6,0.6-1,1.1-1,2
		c0,1.3,0,2.7-0.1,4.4c-0.1,2.5-0.1,5.7-0.1,10h-1c0-4.3,0.1-7.5,0.1-10c0-1.7,0.1-3.1,0.1-4.4c0-1.3,0.7-2,1.3-2.7
		c0.6-0.6,1.1-1.1,1.1-2.1c0-3.9-0.2-7.8-0.7-11.6c-0.1-0.6-0.5-1.1-1.2-1.2c-0.2,0-0.4-0.1-0.7-0.1c-0.1,0-0.2,0-0.4,0.2
		c-0.1,0.1-0.1,0.2-0.2,0.4c0.5,2.1,0.3,4.7,0,5.2c-0.1,0.1-0.3,0.2-0.5,0.2c-0.4,0-0.6-0.4-0.7-1.5c0-0.4-0.1-1.3-0.1-2.3
		c0-0.7,0.1-1.2,0.2-1.6c0-0.1-0.1-0.2-0.1-0.3c-0.2-0.2-1.3-0.3-1.9,0c-0.3,0.2-0.5,0.6-0.7,1.1c0.5,1.9,0.5,3.9,0.2,4.3
		c-0.1,0.2-0.3,0.3-0.4,0.3c-0.4,0-0.5-0.4-0.6-0.6C28,23,27.7,21.2,28,19.7c-0.1-0.4-0.3-0.8-0.4-1.1c-0.2-0.1-0.9-0.2-1.3,0
		c-0.5,0.3-0.7,1.3-0.7,2.4c0.1,0.4,0.1,0.7,0.2,0.9c0.3,1.8,0.2,2,0.1,2.1l-0.1,0.2h-0.3c-0.4,0-0.5-0.4-0.6-0.6
		c0,0-0.3-1.3-0.3-2.6c-0.2-0.7-0.4-1.5-0.6-2.3c-0.1-0.1-0.6-0.4-1-0.3c-0.6,0.1-0.9,1-1,1.3c-0.4,1.1-0.3,2-0.1,2.8
		c0.1,0.8,0.3,1.7-0.4,2.2c-0.5,0.4-1.2,0.3-1.8,0.2c-0.5-0.1-0.8-0.1-0.9,0.1c-0.8,1.1-0.6,5,1.2,7.6c0.6,0.9,1.2,1.3,1.7,1.7
		c0.6,0.4,1.1,0.9,1.2,1.8c0.3,6.2,0.1,10.9,0,13.2C22.8,49.8,22.8,50.3,22.8,50.5z M27.7,18.6L27.7,18.6L27.7,18.6z"/>
	<path class="st1" d="M14.7,34h-3.4c-1.6,0-2.9-1.3-2.9-2.9v-17c0-1.6,1.3-2.9,2.9-2.9h3.4c1.6,0,2.9,1.3,2.9,2.9v17
		C17.6,32.7,16.3,34,14.7,34z M11.3,12.2c-1,0-1.9,0.9-1.9,1.9v17c0,1,0.9,1.9,1.9,1.9h3.4c1,0,1.9-0.9,1.9-1.9v-17
		c0-1-0.9-1.9-1.9-1.9C14.7,12.2,11.3,12.2,11.3,12.2z"/>
	<path class="st1" d="M41.9,34h-3.4c-1.6,0-2.9-1.3-2.9-2.9v-17c0-1.6,1.3-2.9,2.9-2.9h3.4c1.6,0,2.9,1.3,2.9,2.9v17
		C44.8,32.7,43.5,34,41.9,34z M38.5,12.2c-1,0-1.9,0.9-1.9,1.9v17c0,1,0.9,1.9,1.9,1.9h3.4c1,0,1.9-0.9,1.9-1.9v-17
		c0-1-0.9-1.9-1.9-1.9C41.9,12.2,38.5,12.2,38.5,12.2z"/>
	<path class="st1" d="M8.6,25.8H5c-0.6,0-1-0.5-1-1c0-0.2,0-0.4,0-0.6c-0.1-3.6-0.1-4,0.2-4.3c0.2-0.2,0.3-0.3,4.4-0.3v1
		c-1.4,0-3,0-3.6,0.1c-0.1,0.7,0,2.6,0,3.5c0,0.2,0,0.4,0,0.6l0,0h3.6V25.8z M4.9,20.5L4.9,20.5z"/>
	<path class="st1" d="M44.7,25.8v-1c1.4,0,3,0,3.6-0.1c0.1-0.7,0-2.6,0-3.5c0-0.2,0-0.4,0-0.6l0,0h-3.6v-1h3.6c0.6,0,1,0.5,1,1
		c0,0.2,0,0.4,0,0.6c0.1,3.6,0.1,4-0.2,4.3C48.9,25.6,48.7,25.8,44.7,25.8z M48.3,24.9L48.3,24.9L48.3,24.9z"/>
	<rect x="17.6" y="19.8" class="st1" width="3.3" height="1"/>
</g>
</svg>
