<svg id="Layer_2" data-name="Layer 2" xmlns="http://www.w3.org/2000/svg" width="43.75" height="43.44" viewBox="0 0 43.75 43.44">
  <defs>
    <style>
      .cls-1 {
        fill: #0093be;
      }
    </style>
  </defs>
  <g>
    <path class="cls-1" d="M.15,36.4a1.64,1.64,0,0,1,.3-1.82L32.34.53A1.61,1.61,0,0,1,33.57,0c-.52,3.6-1.43,17.17-5.79,22.59C24,27.32,3.89,34.74.15,36.4Z"/>
    <path class="cls-1" d="M41.83,43.42l-40.41-6a1.61,1.61,0,0,1-1.24-.92c2.66-.9,12.72-4.74,26-9.64,1-.38,3.33-.55,4.56.95C35.16,33.21,42,41.91,42.81,43c-.9-1.46-10.39-16.35-11-21.11C31.33,18.2,33.61,4.24,34.07.08a1.68,1.68,0,0,1,1.12,1.24l8.52,40.1A1.67,1.67,0,0,1,41.83,43.42Z"/>
  </g>
</svg>
