<?xml version="1.0" encoding="utf-8"?>
<!-- Generator: Adobe Illustrator 25.2.1, SVG Export Plug-In . SVG Version: 6.00 Build 0)  -->
<svg version="1.1" id="Layer_1" xmlns="http://www.w3.org/2000/svg" xmlns:xlink="http://www.w3.org/1999/xlink" x="0px" y="0px"
	 viewBox="0 0 50 50" style="enable-background:new 0 0 50 50;" xml:space="preserve">
<style type="text/css">
	.st0{fill-rule:evenodd;clip-rule:evenodd;fill:#FFFFFF;}
</style>
<g>
	<path class="st0" d="M25,0c-6.8,0-7.6,0-10.3,0.2C12,0.3,10.2,0.7,8.6,1.3C6.9,1.9,5.4,2.9,4.2,4.2C2.9,5.4,1.9,6.9,1.3,8.6
		c-0.6,1.6-1,3.4-1.1,6.1C0,17.4,0,18.2,0,25s0,7.7,0.2,10.3c0.1,2.7,0.6,4.5,1.1,6.1c0.6,1.7,1.6,3.2,2.9,4.4
		C5.6,47.2,7,48,8.6,48.7c1.6,0.6,3.4,1,6.1,1.2S18.2,50,25,50s7.6,0,10.3-0.2s4.5-0.5,6.1-1.2c1.7-0.6,3.2-1.6,4.4-2.9
		c1.4-1.4,2.3-2.8,2.9-4.4c0.6-1.6,1-3.4,1.2-6.1S50,31.8,50,25s0-7.6-0.2-10.3s-0.5-4.5-1.2-6.1c-0.6-1.7-1.6-3.2-2.9-4.4
		c-1.3-1.3-2.8-2.3-4.4-2.9c-1.6-0.6-3.4-1-6.1-1.1C32.7,0,31.8,0,25,0z M25,4.5c6.7,0,7.5,0,10.1,0.2c2.4,0.1,3.8,0.5,4.7,0.8
		c1.2,0.4,2,1,2.9,1.9s1.4,1.7,1.9,2.9c0.3,0.9,0.8,2.2,0.8,4.6c0.1,2.6,0.2,3.4,0.2,10.1s0,7.5-0.2,10.1c-0.1,2.4-0.5,3.8-0.8,4.7
		c-0.4,1.1-1,2.1-1.9,2.9c-0.9,0.9-1.7,1.4-2.9,1.9c-0.9,0.3-2.2,0.8-4.7,0.8c-2.6,0.1-3.4,0.2-10.1,0.2s-7.5,0-10.1-0.2
		c-2.4-0.1-3.8-0.5-4.6-0.8c-1.1-0.4-2.1-1-2.9-1.9c-0.8-0.8-1.5-1.8-1.9-2.9c-0.3-0.9-0.8-2.2-0.8-4.7C4.5,32.5,4.5,31.7,4.5,25
		s0-7.5,0.2-10.1c0.1-2.4,0.5-3.8,0.8-4.6c0.4-1.2,1-2,1.9-2.9S9.1,6,10.3,5.5c0.9-0.3,2.2-0.8,4.6-0.8C17.5,4.5,18.3,4.5,25,4.5z"
		/>
	<path class="st0" d="M25,33.3c-4.6,0-8.4-3.7-8.4-8.4c0-4.6,3.7-8.4,8.4-8.4l0,0c4.6,0,8.3,3.7,8.3,8.4
		C33.3,29.6,29.6,33.3,25,33.3z M25,12.1c-7.1,0-12.9,5.8-12.9,12.9S17.9,37.8,25,37.8l0,0c7.1,0,12.8-5.8,12.8-12.9
		S32.1,12.1,25,12.1z M41.6,11.9c0,1.7-1.3,3.1-3,3.1s-3-1.4-3-3.1s1.3-3,3-3S41.6,10.3,41.6,11.9"/>
</g>
</svg>
