<svg id="Layer_2" data-name="Layer 2" xmlns="http://www.w3.org/2000/svg" width="186.81" height="43.44" viewBox="0 0 186.81 43.44">
  <defs>
    <style>
      .cls-1 {
        fill: #fff;
      }
    </style>
  </defs>
  <g>
    <g>
      <path class="cls-1" d="M48.16,14.91h4.37L59,32.69l6.42-17.78h4.33v21h-2.9V23.53q0-.64,0-2.13c0-1,0-2.06,0-3.19L60.48,35.94h-3L51,18.21v.64c0,.52,0,1.3,0,2.36s0,1.83,0,2.32V35.94H48.16Z"/>
      <path class="cls-1" d="M84.25,21a6,6,0,0,1,2.5,2,6.65,6.65,0,0,1,1.11,2.7,16.93,16.93,0,0,1,.24,3.38h-12a6.29,6.29,0,0,0,1.18,3.74,4.08,4.08,0,0,0,3.42,1.41,4.56,4.56,0,0,0,3.45-1.33,4.44,4.44,0,0,0,1-1.79h2.71A5.13,5.13,0,0,1,87.16,33a6.82,6.82,0,0,1-1.36,1.7,6.57,6.57,0,0,1-3.11,1.54,9.76,9.76,0,0,1-2.26.23,7.14,7.14,0,0,1-5.19-2.08,7.75,7.75,0,0,1-2.14-5.83,8.47,8.47,0,0,1,2.15-6,7.33,7.33,0,0,1,5.61-2.3A7.91,7.91,0,0,1,84.25,21Zm1,6a6.25,6.25,0,0,0-.78-2.67,4.07,4.07,0,0,0-3.79-1.87A4.34,4.34,0,0,0,77.5,23.8a4.69,4.69,0,0,0-1.36,3.25Z"/>
      <path class="cls-1" d="M90.77,26.45h7.7V29.1h-7.7Z"/>
      <path class="cls-1" d="M102.24,14.91h4.37l6.47,17.78,6.42-17.78h4.33v21h-2.9V23.53q0-.64,0-2.13c0-1,0-2.06,0-3.19l-6.42,17.73h-3l-6.47-17.73v.64c0,.52,0,1.3,0,2.36s0,1.83,0,2.32V35.94h-2.91Z"/>
      <path class="cls-1" d="M140.1,22.14A7.44,7.44,0,0,1,142.29,28a9.5,9.5,0,0,1-1.93,6.13q-1.94,2.41-6,2.42A7,7,0,0,1,129,34.36a8.09,8.09,0,0,1-2-5.75,8.74,8.74,0,0,1,2.1-6.15,7.27,7.27,0,0,1,5.64-2.29A7.75,7.75,0,0,1,140.1,22.14Zm-1.71,10.2a9.11,9.11,0,0,0,1-4.31,7.27,7.27,0,0,0-.74-3.5,4.19,4.19,0,0,0-4-2.11,4.05,4.05,0,0,0-3.68,1.8,8,8,0,0,0-1.15,4.35A7,7,0,0,0,131,32.65a4.16,4.16,0,0,0,3.65,1.63A3.88,3.88,0,0,0,138.39,32.34Z"/>
      <path class="cls-1" d="M146.92,20.61l4.39,12.48,4.58-12.48h3l-6.19,15.33h-2.95l-6.05-15.33Z"/>
      <path class="cls-1" d="M171.5,21a6,6,0,0,1,2.5,2,6.65,6.65,0,0,1,1.11,2.7,16.93,16.93,0,0,1,.24,3.38h-12a6.29,6.29,0,0,0,1.18,3.74,4.08,4.08,0,0,0,3.42,1.41,4.56,4.56,0,0,0,3.45-1.33,4.44,4.44,0,0,0,1-1.79h2.71a5.13,5.13,0,0,1-.71,1.88,6.82,6.82,0,0,1-1.36,1.7,6.57,6.57,0,0,1-3.11,1.54,9.76,9.76,0,0,1-2.26.23,7.18,7.18,0,0,1-5.2-2.08,7.78,7.78,0,0,1-2.13-5.83,8.47,8.47,0,0,1,2.15-6,7.33,7.33,0,0,1,5.61-2.3A7.91,7.91,0,0,1,171.5,21Zm1,6a6.25,6.25,0,0,0-.78-2.67,4.07,4.07,0,0,0-3.79-1.87,4.34,4.34,0,0,0-3.19,1.29,4.69,4.69,0,0,0-1.36,3.25Z"/>
      <path class="cls-1" d="M178.82,20.61h2.62v2.65A5.79,5.79,0,0,1,183,21.38a4.25,4.25,0,0,1,2.9-1.11h.26l.63.06v2.72l-.46-.06h-.45a4,4,0,0,0-3.2,1.25,4.18,4.18,0,0,0-1.12,2.88v8.82h-2.76Z"/>
    </g>
    <path class="cls-1" d="M.15,36.4a1.64,1.64,0,0,1,.3-1.82L32.34.53A1.61,1.61,0,0,1,33.57,0c-.52,3.6-1.43,17.17-5.79,22.59C24,27.32,3.89,34.74.15,36.4Z"/>
    <path class="cls-1" d="M41.83,43.42l-40.41-6a1.61,1.61,0,0,1-1.24-.92c2.66-.9,12.72-4.74,26-9.64,1-.38,3.33-.55,4.56.95C35.16,33.21,42,41.91,42.81,43c-.9-1.46-10.39-16.35-11-21.11C31.33,18.2,33.61,4.24,34.07.08a1.68,1.68,0,0,1,1.12,1.24l8.52,40.1A1.67,1.67,0,0,1,41.83,43.42Z"/>
    <path class="cls-1" d="M.18,36.46a.09.09,0,0,1,0-.06"/>
    <path class="cls-1" d="M34.07.08a1.69,1.69,0,0,0-.5-.08"/>
  </g>
</svg>
