<?xml version="1.0" encoding="utf-8"?>
<!-- Generator: Adobe Illustrator 25.2.1, SVG Export Plug-In . SVG Version: 6.00 Build 0)  -->
<svg version="1.1" id="Warstwa_1" xmlns="http://www.w3.org/2000/svg" xmlns:xlink="http://www.w3.org/1999/xlink" x="0px" y="0px"
	 viewBox="0 0 50 50" style="enable-background:new 0 0 50 50;" xml:space="preserve">
<style type="text/css">
	.st0{fill:#0095BE;}
	.st1{fill:#FFFFFF;}
</style>
<g>
	<circle class="st0" cx="25" cy="25" r="25"/>
	<g>
		<path class="st1" d="M37.8,29.1l-0.5-0.9c2.1-1.3,3.6-3.3,4.2-5.7c0.6-2.4,0.2-4.9-1-7c-2.6-4.4-8.3-5.8-12.7-3.1
			c-4,2.4-5.6,7.4-3.6,11.7l-0.9,0.4c-2.1-4.7-0.4-10.3,4-13c4.8-2.9,11.1-1.3,14,3.5c1.4,2.3,1.8,5.1,1.2,7.7
			C41.8,25.5,40.1,27.7,37.8,29.1z M34.1,27.5l-0.6-0.8c0.4-0.3,0.7-0.8,0.7-1.4v-3.1h3.3c0.9,0,1.7-0.7,1.7-1.7v-0.3
			c0-0.9-0.7-1.7-1.7-1.7h-3.3v-3.3c0-0.9-0.7-1.7-1.7-1.7h-0.3c-0.9,0-1.7,0.7-1.7,1.7v3.3h-3.2c-0.9,0-1.7,0.7-1.7,1.7v0.3
			c0,0.9,0.7,1.7,1.7,1.7h3.2v3.1c0,0.3,0.1,0.6,0.3,0.9L30,26.8c-0.3-0.4-0.4-0.9-0.4-1.4v-2.1h-2.2c-1.5,0-2.7-1.2-2.7-2.7v-0.3
			c0-1.5,1.2-2.7,2.7-2.7h2.2v-2.3c0-1.5,1.2-2.7,2.7-2.7h0.3c1.5,0,2.7,1.2,2.7,2.7v2.3h2.3c1.5,0,2.7,1.2,2.7,2.7v0.3
			c0,1.5-1.2,2.7-2.7,2.7h-2.3v2.1C35.2,26.2,34.8,27,34.1,27.5z"/>
		<path class="st1" d="M9.7,36.4h-3c-0.8,0-1.5-0.7-1.5-1.5V24.3c0-0.8,0.7-1.5,1.5-1.5h3c0.8,0,1.5,0.7,1.5,1.5v10.6
			C11.1,35.7,10.5,36.4,9.7,36.4z M6.6,23.8c-0.2,0-0.5,0.2-0.5,0.5v10.6c0,0.3,0.2,0.5,0.5,0.5h3c0.3,0,0.5-0.2,0.5-0.5V24.3
			c0-0.3-0.2-0.5-0.5-0.5H6.6z"/>
		<path class="st1" d="M27.1,39.8c-0.1,0-0.3,0-0.4,0c-0.9-0.1-1.8-0.4-2.7-0.9c-2.6-0.8-4.7-1.7-6.4-2.8c-1.1-0.8-2.4-1.3-3.7-1.7
			c-0.7-0.1-1.3-0.2-1.9-0.2h-0.5l0-9.2l0.3-0.1c1.3-0.6,2.8-1.1,4.3-1.3c1-0.1,1.9-0.2,2.8-0.2c2.1,0,3.1-0.1,3.8,0.1
			c1.1,0.3,2.1,0.8,3.1,1.4c0.1,0.1,0.3,0.2,0.4,0.3c0.4,0.3,0.7,0.5,1.2,0.6c0.3,0.1,0.5,0.1,0.8,0c0.2,0,0.5,0,0.8,0
			c0.5,0,0.7,0,1.2,0.1c0.3,0.1,0.7,0.1,1.4,0.3c0.6,0.1,1,0.2,1.3,0.2c0.7,0.1,1.1,0.2,1.8,0.4c0.3,0.1,0.6,0.1,0.9,0.2
			c0.6,0.1,1.3,0.2,1.8,0.6l0,0c0.3,0.3,0.7,1.3,0.7,2c0,0.3-0.1,0.5-0.2,0.8c0,0,0,0,0,0c0.3-0.2,0.5-0.4,1-0.7
			c0.9-0.5,1.9-0.7,2.7-0.7c0.4,0,1.1,0.1,1.5,0.7c0.2,0.2,0.6,0.8,0.4,1.4c-0.1,0.3-0.2,0.5-0.4,0.6c0,0,0,0,0,0
			c0.3,0.3,0.4,0.8,0.3,1.3c-0.1,0.4-0.3,0.6-0.6,1c-0.3,0.3-0.6,0.7-1.1,1c-1.2,0.9-1.8,1.3-2.2,1.6l-0.4,0.3
			c-1.5,0.9-2.1,1.3-2.4,1.5l0,0c-0.6,0.2-1.4,0.3-3,0.6l-0.3,0c-1,0.1-1.5,0.2-1.9,0.2c-0.3,0-0.6,0.1-1.1,0.1
			c-0.9,0.1-1.5,0.3-1.9,0.4C28.1,39.7,27.6,39.8,27.1,39.8z M12.5,33.2c0.5,0,1.1,0.1,1.6,0.2l0,0c1.4,0.4,2.8,1,4,1.8
			c1.7,1.1,3.7,2,6.2,2.7l0.1,0l0.1,0c0.7,0.4,1.5,0.7,2.3,0.8c0.6,0.1,0.9,0,1.7-0.2c0.5-0.1,1.1-0.2,2-0.4
			c0.6-0.1,0.8-0.1,1.2-0.2c0.3,0,0.8-0.1,1.8-0.2l0.3,0c1.5-0.2,2.3-0.3,2.8-0.5c0.3-0.1,1-0.6,2.3-1.4l0.4-0.3
			c0.4-0.3,1-0.7,2.2-1.5c0.4-0.3,0.7-0.6,0.9-0.9c0.3-0.4,0.4-0.5,0.4-0.6c0.1-0.2,0-0.3,0-0.3c0,0,0,0-0.1,0
			c-0.1,0-0.4-0.1-0.5-0.5c-0.1-0.4,0.2-0.7,0.4-0.8c0.1-0.1,0.2-0.2,0.3-0.3c0-0.1-0.1-0.4-0.2-0.4l0,0C42.4,30,42,30,41.7,29.9
			c-0.6-0.1-1.4,0.1-2.2,0.5c-0.4,0.2-0.5,0.3-0.8,0.6c-0.3,0.2-0.6,0.5-1.2,0.9L37.4,32c-0.7,0.4-1.1,0.7-1.6,0.9
			c-0.4,0.1-0.7,0.1-1.6,0.2c-0.2,0-0.4,0-0.7,0c-0.7,0-1.1,0.1-1.4,0.1c-0.4,0-0.6,0-1,0c-0.8,0-1.5-0.1-2.2-0.2
			c-0.2,0-0.5-0.2-1.2-0.5l-0.3-0.1c-0.6-0.3-0.9-0.4-1.1-0.5c-0.2-0.1-0.7-0.3-0.5-0.8l0-0.1l0-0.1c0.3-0.4,0.8-0.7,1.3-0.6
			c0.6,0,0.9,0.1,1.2,0.1c0.3,0,0.5,0,0.9,0.1c0.5,0,0.8,0.1,1.1,0.1c0.2,0,0.4,0.1,0.9,0.1c0.6,0.1,0.8,0.1,1.1,0.1
			c0.2,0,0.5,0,1,0.1c0.7,0.1,1.5,0,2.2-0.1l0.1,0c0.4,0,0.7-0.1,1-0.3c0.3-0.2,0.7-0.5,0.7-0.9c0-0.5-0.3-1.1-0.4-1.2
			c-0.3-0.2-0.7-0.3-1.2-0.3c-0.4-0.1-0.7-0.1-1.1-0.2c-0.7-0.2-1-0.2-1.7-0.4c-0.3-0.1-0.7-0.1-1.3-0.2c-0.7-0.1-1.1-0.2-1.4-0.3
			c-0.5-0.1-0.6-0.1-1-0.1c-0.3,0-0.5,0-0.7,0c-0.4,0-0.7,0.1-1.1,0c-0.7-0.2-1.1-0.5-1.6-0.8c-0.1-0.1-0.2-0.2-0.3-0.2
			c-0.9-0.6-1.9-1-2.8-1.3c-0.6-0.2-1.6-0.1-3.6-0.1c-0.9,0-1.8,0.1-2.7,0.2c-1.3,0.2-2.6,0.6-3.8,1.1L12.5,33.2z M31.2,32.2
			L31.2,32.2c0.4,0,0.6,0,0.9,0c0.3,0,0.7-0.1,1.4-0.1c0.3,0,0.5,0,0.7,0c0.9,0,1,0,1.3-0.1c0.2-0.1,0.3-0.1,0.5-0.2
			c-0.1,0-0.3,0-0.4,0c-0.8,0.1-1.6,0.1-2.4,0.1c-0.5,0-0.7,0-1,0c-0.3,0-0.6,0-1.2-0.1c-0.5,0-0.7-0.1-0.9-0.1
			c-0.3,0-0.5-0.1-1-0.1c-0.4,0-0.7,0-0.9-0.1c-0.2,0-0.3,0-0.6-0.1c0.1,0,0.1,0,0.2,0.1l0.3,0.1c0.6,0.2,1,0.4,1.1,0.4
			C29.8,32.2,30.5,32.2,31.2,32.2L31.2,32.2z"/>
	</g>
</g>
</svg>
