<?xml version="1.0" encoding="utf-8"?>
<!-- Generator: Adobe Illustrator 25.2.1, SVG Export Plug-In . SVG Version: 6.00 Build 0)  -->
<svg version="1.1" id="Layer_1" xmlns="http://www.w3.org/2000/svg" xmlns:xlink="http://www.w3.org/1999/xlink" x="0px" y="0px"
	 viewBox="0 0 50 50" style="enable-background:new 0 0 50 50;" xml:space="preserve">
<style type="text/css">
	.st0{fill:#FFFFFF;}
	.st1{fill:#0093BE;}
</style>
<g>
	<circle class="st0" cx="25" cy="25" r="24.5"/>
	<path class="st0" d="M25,50C11.2,50,0,38.8,0,25S11.2,0,25,0s25,11.2,25,25S38.8,50,25,50z M25,1C11.8,1,1,11.8,1,25s10.8,24,24,24
		s24-10.8,24-24S38.2,1,25,1z"/>
</g>
<g>
	<path class="st1" d="M24.9,41.4c-7.4,0-13.3-6-13.3-13.3s6-13.3,13.3-13.3s13.3,6,13.3,13.3S32.3,41.4,24.9,41.4z M24.9,15.7
		c-6.8,0-12.4,5.5-12.4,12.4S18,40.5,24.9,40.5S37.3,34.9,37.3,28S31.7,15.7,24.9,15.7z"/>
	<path class="st1" d="M25,45.3c-9.6,0-17.4-7.8-17.4-17.4S15.4,10.6,25,10.6S42.4,18.4,42.4,28S34.6,45.3,25,45.3z M25,11.6
		c-9,0-16.4,7.3-16.4,16.4S16,44.3,25,44.3S41.4,37,41.4,27.9S34,11.6,25,11.6z"/>
	<g>
		<circle class="st1" cx="24.8" cy="27.9" r="2.4"/>
		<path class="st1" d="M24.8,30.8c-1.6,0-2.8-1.3-2.8-2.8c0-1.6,1.3-2.8,2.8-2.8c1.6,0,2.8,1.3,2.8,2.8
			C27.6,29.5,26.4,30.8,24.8,30.8z M24.8,26.1c-1,0-1.9,0.8-1.9,1.9c0,1,0.8,1.9,1.9,1.9c1,0,1.9-0.8,1.9-1.9
			C26.7,26.9,25.8,26.1,24.8,26.1z"/>
	</g>
	<g>
		<path class="st1" d="M24.8,19.7L24.8,19.7c0.4,0,0.8,0.4,0.8,0.8v4.3c0,0.4-0.4,0.8-0.8,0.8l0,0c-0.4,0-0.8-0.4-0.8-0.8v-4.3
			C24,20.1,24.4,19.7,24.8,19.7z"/>
		<path class="st1" d="M24.8,26.1c-0.7,0-1.3-0.6-1.3-1.3v-4.3c0-0.7,0.6-1.3,1.3-1.3c0.7,0,1.3,0.6,1.3,1.3v4.3
			C26.1,25.5,25.5,26.1,24.8,26.1z M24.8,20.2c-0.2,0-0.3,0.1-0.3,0.3v4.3c0,0.2,0.1,0.3,0.3,0.3c0.2,0,0.3-0.1,0.3-0.3v-4.3
			C25.1,20.3,25,20.2,24.8,20.2z"/>
	</g>
	<g>
		<path class="st1" d="M28,27.5h4.7c0.5,0,0.9,0.4,0.9,0.9l0,0c0,0.5-0.4,0.9-0.9,0.9H28c-0.5,0-0.9-0.4-0.9-0.9l0,0
			C27.2,27.9,27.5,27.5,28,27.5z"/>
		<path class="st1" d="M32.7,29.8H28c-0.8,0-1.4-0.6-1.4-1.4S27.2,27,28,27h4.7c0.8,0,1.4,0.6,1.4,1.4
			C34.1,29.2,33.5,29.8,32.7,29.8z M28,28c-0.2,0-0.4,0.2-0.4,0.4c0,0.2,0.2,0.4,0.4,0.4h4.7c0.2,0,0.4-0.2,0.4-0.4
			c0-0.2-0.2-0.4-0.4-0.4H28z"/>
	</g>
	<g>
		<path class="st1" d="M24.9,15.8L24.9,15.8c0.4,0,0.7,0.3,0.7,0.7v0.8c0,0.4-0.3,0.7-0.7,0.7l0,0c-0.4,0-0.7-0.3-0.7-0.7v-0.8
			C24.2,16.1,24.5,15.8,24.9,15.8z"/>
		<path class="st1" d="M24.9,18.4c-0.6,0-1.2-0.5-1.2-1.2v-0.8c0-0.6,0.5-1.2,1.2-1.2c0.6,0,1.2,0.5,1.2,1.2v0.8
			C26.1,17.9,25.6,18.4,24.9,18.4z M24.9,16.3c-0.1,0-0.2,0.1-0.2,0.2v0.8c0,0.1,0.1,0.2,0.2,0.2s0.2-0.1,0.2-0.2v-0.8
			C25.1,16.4,25,16.3,24.9,16.3z"/>
	</g>
	<g>
		<path class="st1" d="M31.4,17.5L31.4,17.5c0.3,0.2,0.4,0.6,0.2,0.9l-0.4,0.7c-0.2,0.3-0.6,0.4-0.9,0.2l0,0
			c-0.3-0.2-0.4-0.6-0.2-0.9l0.4-0.7C30.6,17.4,31.1,17.3,31.4,17.5z"/>
		<path class="st1" d="M30.6,19.9c-0.2,0-0.4-0.1-0.6-0.2c-0.5-0.3-0.7-1.1-0.4-1.6l0.4-0.7c0.2-0.3,0.4-0.5,0.7-0.5
			c0.3-0.1,0.6,0,0.9,0.2c0.5,0.3,0.7,1.1,0.4,1.6l-0.4,0.7C31.4,19.7,31,19.9,30.6,19.9z M31,17.9L31,17.9c-0.1,0-0.1,0-0.2,0.1
			l0,0l-0.4,0.7c0,0.1,0,0.2,0.1,0.3c0.1,0.1,0.2,0,0.3-0.1l0.4-0.7C31.2,18.1,31.2,18,31,17.9L31,17.9C31.1,17.9,31,17.9,31,17.9z"
			/>
	</g>
	<g>
		<path class="st1" d="M35.6,22.1L35.6,22.1c0.2,0.3,0.1,0.7-0.3,0.9l-0.7,0.4c-0.3,0.2-0.7,0.1-0.9-0.3l0,0
			c-0.2-0.3-0.1-0.7,0.3-0.9l0.7-0.4C35,21.6,35.4,21.7,35.6,22.1z"/>
		<path class="st1" d="M34.3,24c-0.1,0-0.2,0-0.3,0c-0.3-0.1-0.6-0.3-0.7-0.6c-0.2-0.3-0.2-0.6-0.1-0.9c0.1-0.3,0.3-0.6,0.6-0.7
			l0.7-0.4c0.6-0.3,1.3-0.1,1.6,0.4c0.2,0.3,0.2,0.6,0.1,0.9c-0.1,0.3-0.3,0.6-0.6,0.7l-0.7,0.4C34.7,23.9,34.5,24,34.3,24z
			 M35,22.2L35,22.2l-0.8,0.4l-0.1,0.1v0.1c0,0.1,0.1,0.1,0.1,0.1h0.1l0.7-0.4C35.1,22.4,35.1,22.3,35,22.2
			C35.1,22.2,35.1,22.2,35,22.2z"/>
	</g>
	<g>
		<path class="st1" d="M37.3,28.4L37.3,28.4c0,0.4-0.3,0.7-0.7,0.7h-0.8c-0.4,0-0.7-0.3-0.7-0.7l0,0c0-0.4,0.3-0.7,0.7-0.7h0.8
			C37,27.7,37.3,28,37.3,28.4z"/>
		<path class="st1" d="M36.6,29.6h-0.8c-0.6,0-1.2-0.5-1.2-1.2s0.5-1.2,1.2-1.2h0.8c0.6,0,1.2,0.5,1.2,1.2
			C37.8,29,37.3,29.6,36.6,29.6z M35.9,28.2c-0.1,0-0.2,0.1-0.2,0.2s0.1,0.2,0.2,0.2h0.8c0.1,0,0.2-0.1,0.2-0.2s-0.1-0.2-0.2-0.2
			H35.9z"/>
	</g>
	<g>
		<path class="st1" d="M35.2,34.3L35.2,34.3c-0.2,0.3-0.7,0.4-1,0.1L33.6,34c-0.3-0.2-0.4-0.7-0.1-1l0,0c0.2-0.3,0.7-0.4,1-0.1
			l0.6,0.5C35.4,33.6,35.5,34,35.2,34.3z"/>
		<path class="st1" d="M34.7,35.1c-0.2,0-0.5-0.1-0.7-0.2l-0.6-0.5c-0.5-0.4-0.6-1.1-0.2-1.6l0,0c0.4-0.5,1.1-0.6,1.6-0.2l0.6,0.5
			c0.3,0.2,0.4,0.5,0.5,0.8c0,0.3,0,0.6-0.2,0.9C35.4,34.9,35,35.1,34.7,35.1z M33.9,33.3c-0.1,0.1,0,0.2,0.1,0.3l0.6,0.5
			c0.1,0.1,0.2,0,0.3-0.1v-0.1c0,0,0-0.1-0.1-0.1l-0.6-0.5C34.1,33.2,34,33.2,33.9,33.3z"/>
	</g>
	<g>
		<path class="st1" d="M30,37L30,37c0.3-0.2,0.7,0,0.9,0.3l0.3,0.7c0.2,0.3,0,0.7-0.3,0.9l0,0c-0.3,0.2-0.7,0-0.9-0.3l-0.3-0.7
			C29.5,37.6,29.6,37.2,30,37z"/>
		<path class="st1" d="M30.6,39.5c-0.4,0-0.9-0.2-1.1-0.7l-0.3-0.7c-0.3-0.6,0-1.3,0.6-1.6l0,0c0.6-0.3,1.3,0,1.6,0.6l0.3,0.7
			c0.3,0.6,0,1.3-0.6,1.6C31,39.5,30.8,39.5,30.6,39.5z M30.2,37.4c-0.1,0.1-0.1,0.2-0.1,0.3l0.3,0.7c0.1,0.1,0.2,0.1,0.3,0.1
			c0.1-0.1,0.1-0.2,0.1-0.3l-0.3-0.7C30.4,37.4,30.3,37.4,30.2,37.4z"/>
	</g>
	<g>
		<path class="st1" d="M24.9,40.3L24.9,40.3c-0.4,0-0.7-0.3-0.7-0.7v-0.8c0-0.4,0.3-0.7,0.7-0.7l0,0c0.4,0,0.7,0.3,0.7,0.7v0.8
			C25.6,40,25.3,40.3,24.9,40.3z"/>
		<path class="st1" d="M24.9,40.8c-0.6,0-1.2-0.5-1.2-1.2v-0.8c0-0.6,0.5-1.2,1.2-1.2c0.6,0,1.2,0.5,1.2,1.2v0.8
			C26.1,40.3,25.6,40.8,24.9,40.8z M24.9,38.6c-0.1,0-0.2,0.1-0.2,0.2v0.8c0,0.1,0.1,0.2,0.2,0.2s0.2-0.1,0.2-0.2v-0.8
			C25.1,38.7,25,38.6,24.9,38.6z"/>
	</g>
	<g>
		<path class="st1" d="M18.8,38.8L18.8,38.8c-0.3-0.2-0.4-0.7-0.1-1l0.5-0.6c0.2-0.3,0.7-0.4,1-0.1l0,0c0.3,0.2,0.4,0.7,0.1,1
			l-0.5,0.6C19.5,39,19.1,39.1,18.8,38.8z"/>
		<path class="st1" d="M19.2,39.5c-0.3,0-0.5-0.1-0.7-0.3c-0.5-0.4-0.6-1.1-0.2-1.6l0.5-0.6c0.4-0.5,1.1-0.6,1.6-0.2l0,0
			c0.5,0.4,0.6,1.1,0.2,1.6L20.2,39c-0.2,0.3-0.5,0.4-0.8,0.5C19.3,39.5,19.3,39.5,19.2,39.5z M19.7,37.5c-0.1,0-0.1,0-0.2,0.1
			L19,38.2c-0.1,0.1,0,0.2,0.1,0.3l0,0h0.1c0,0,0.1,0,0.1-0.1l0.5-0.6c0.1-0.1,0-0.2,0-0.3C19.8,37.5,19.8,37.5,19.7,37.5z"/>
	</g>
	<g>
		<path class="st1" d="M14.2,34.4L14.2,34.4c-0.2-0.3,0-0.7,0.3-0.9l0.7-0.4c0.3-0.2,0.7,0,0.9,0.3l0,0c0.2,0.3,0,0.7-0.3,0.9
			l-0.7,0.4C14.8,34.8,14.4,34.7,14.2,34.4z"/>
		<path class="st1" d="M14.8,35.2c-0.1,0-0.2,0-0.4-0.1c-0.3-0.1-0.5-0.3-0.7-0.6c-0.3-0.6-0.1-1.3,0.5-1.6l0.7-0.4
			c0.6-0.3,1.3-0.1,1.6,0.5s0.1,1.3-0.5,1.6L15.3,35C15.2,35.2,15,35.2,14.8,35.2z M15.5,33.5L15.5,33.5l-0.8,0.4
			c-0.1,0.1-0.1,0.2-0.1,0.3s0.1,0.1,0.1,0.1h0.1l0.7-0.4c0.1-0.1,0.1-0.2,0.1-0.3S15.6,33.5,15.5,33.5z"/>
	</g>
	<g>
		<path class="st1" d="M12.6,27.8L12.6,27.8c0-0.4,0.3-0.7,0.7-0.7h0.8c0.4,0,0.7,0.3,0.7,0.7l0,0c0,0.4-0.3,0.7-0.7,0.7h-0.8
			C13,28.5,12.6,28.2,12.6,27.8z"/>
		<path class="st1" d="M14.1,29h-0.8c-0.6,0-1.2-0.5-1.2-1.2c0-0.6,0.5-1.2,1.2-1.2h0.8c0.6,0,1.2,0.5,1.2,1.2S14.8,29,14.1,29z
			 M13.3,27.6c-0.1,0-0.2,0.1-0.2,0.2s0.1,0.2,0.2,0.2h0.8c0.1,0,0.2-0.1,0.2-0.2s-0.1-0.2-0.2-0.2H13.3z"/>
	</g>
	<g>
		<path class="st1" d="M16.1,23.2L16.1,23.2c-0.2,0.3-0.6,0.4-0.9,0.3l-0.7-0.4c-0.3-0.2-0.4-0.6-0.3-0.9l0,0
			c0.2-0.3,0.6-0.4,0.9-0.3l0.7,0.4C16.2,22.5,16.3,22.9,16.1,23.2z"/>
		<path class="st1" d="M15.5,24.1c-0.2,0-0.4,0-0.6-0.1l-0.7-0.4c-0.6-0.3-0.7-1-0.4-1.6l0,0c0.3-0.5,1-0.7,1.6-0.4l0.7,0.4
			c0.3,0.2,0.5,0.4,0.6,0.7c0.1,0.3,0,0.6-0.1,0.9C16.3,23.9,15.9,24.1,15.5,24.1z M14.6,22.4c0,0.1,0,0.2,0.1,0.3l0.7,0.4
			c0.1,0,0.2,0,0.3-0.1c0-0.1,0-0.1,0-0.1c0-0.1-0.1-0.1-0.1-0.1l-0.7-0.4C14.8,22.3,14.7,22.3,14.6,22.4z"/>
	</g>
	<g>
		<path class="st1" d="M19.8,19.1L19.8,19.1c-0.3,0.3-0.7,0.3-1,0l-0.5-0.5c-0.3-0.3-0.3-0.7,0-1l0,0c0.3-0.3,0.7-0.3,1,0l0.5,0.5
			C20.1,18.4,20.1,18.9,19.8,19.1z"/>
		<path class="st1" d="M19.4,19.8C19.3,19.8,19.3,19.8,19.4,19.8c-0.3,0-0.6-0.1-0.8-0.4L18,18.9c-0.2-0.2-0.4-0.5-0.3-0.9
			c0-0.3,0.1-0.6,0.4-0.8c0.2-0.2,0.5-0.3,0.8-0.3s0.6,0.1,0.8,0.4l0.5,0.5c0.2,0.2,0.3,0.5,0.3,0.8s-0.1,0.6-0.3,0.9l0,0
			C20,19.7,19.7,19.8,19.4,19.8z M18.8,17.9c0,0-0.1,0-0.1,0.1c-0.1,0-0.1,0.1-0.1,0.1s0,0.1,0.1,0.1l0.5,0.5c0,0.1,0.1,0.1,0.1,0.1
			s0.1,0,0.1-0.1c0.1-0.1,0.1-0.1,0.1-0.1v-0.1L18.9,18C18.9,17.9,18.9,17.9,18.8,17.9L18.8,17.9z"/>
	</g>
	<path class="st1" d="M26.9,9h-3.7c-1.3,0-2.4-1.1-2.4-2.4s1.1-2.4,2.4-2.4h3.7c1.3,0,2.4,1.1,2.4,2.4S28.2,9,26.9,9z M23.1,5.3
		c-0.7,0-1.4,0.6-1.4,1.4S22.4,8,23.1,8h3.7c0.7,0,1.4-0.6,1.4-1.4s-0.6-1.4-1.4-1.4h-3.7V5.3z"/>
	<path class="st1" d="M14.4,14.3l-1.6-4.1l3-1.7l2.4,3.6L14.4,14.3z M14.1,10.6l0.8,2.2l1.9-1.1l-1.3-1.9L14.1,10.6z"/>
	<path class="st1" d="M35.3,14l-3.9-2l2.4-3.5l3,1.6L35.3,14z M32.9,11.6l1.9,1l0.8-2.1l-1.5-0.8L32.9,11.6z"/>
	<polygon class="st1" points="27.5,10.8 26.5,10.8 26.5,9 23.7,9 23.7,10.8 22.7,10.8 22.7,8 27.5,8 	"/>
</g>
</svg>
