<?xml version="1.0" encoding="utf-8"?>
<!-- Generator: Adobe Illustrator 25.2.1, SVG Export Plug-In . SVG Version: 6.00 Build 0)  -->
<svg version="1.1" id="Warstwa_1" xmlns="http://www.w3.org/2000/svg" xmlns:xlink="http://www.w3.org/1999/xlink" x="0px" y="0px"
	 viewBox="0 0 50 50" style="enable-background:new 0 0 50 50;" xml:space="preserve">
<style type="text/css">
	.st0{fill:#FFFFFF;}
	.st1{fill:#0093BE;}
</style>
<circle class="st0" cx="25" cy="25" r="25"/>
<path class="st1" d="M23.6,41c-0.8,0-1.1,0-1.5-0.1c-0.3,0-0.6-0.1-1.3-0.1c-0.2,0-0.3,0-0.4,0c-0.7,0-1.1,0-1.5-0.4
	c-0.3-0.3-0.3-0.6-0.4-1.3c0-0.2,0-0.5-0.1-0.8c0-0.5-0.1-0.7-0.1-0.9s-0.1-0.5-0.1-1c0-0.4,0-0.7-0.1-1.1c0-0.2,0-0.4,0-0.7
	c0-1.2,0-1.9-0.1-2.8c-0.1-0.8-0.1-1.1-0.2-1.3c-0.1-0.3-0.1-0.6-0.1-1.2c0-0.1,0-0.3,0-0.4c0-0.6,0-0.9-0.3-1.3
	c-0.2-0.3-0.5-0.5-0.9-0.6c-0.3-0.1-0.5,0-0.9,0.1c-0.2,0-0.3,0.1-0.5,0.1c-0.9,0.2-1.8,0.2-2.7,0.1c-1-0.1-1.6-0.4-2.5-0.7
	c-0.7-0.3-1-0.4-1.3-0.6s-0.8-0.5-1.9-1c-0.5-0.2-1.1-0.5-1.4-1.2l0,0c-0.1-0.4-0.1-0.8,0-1.2c0.2-0.9,0.5-1.8,0.9-2.5l0.1-0.2
	c0.6-1.1,1-1.8,1.7-2.9l0.2-0.3c0.4-0.6,0.7-1.1,1.1-1.8c0.4-0.7,1-1.4,1.6-2c0.4-0.4,0.6-0.6,0.8-0.7c0.1-0.1,0.2-0.2,0.6-0.5
	c0.3-0.3,0.6-0.5,1-0.6l0,0c0.3-0.1,0.5-0.1,0.8,0c0.4,0.1,0.7,0.3,1.3,0.8l0.1,0.1c0.7,0.6,0.9,0.7,1,1c0.1,0.2,0.5,0.9,0.1,1.5
	l0,0c-0.2,0.2-0.4,0.3-0.6,0.3c-0.1,0-0.1,0-0.1,0s0,0-0.1,0.1s-0.1,0.2-0.3,0.4s-0.5,0.4-0.9,0.5c-0.5,0.2-0.9,0.3-1.3,0.2
	c-0.2-0.1-0.3-0.1-0.4-0.2c0,0.1-0.1,0.1-0.1,0.2c-0.2,0.3-0.4,0.6-0.6,0.8c-0.2,0.4-0.4,0.8-0.5,1.2l0,0c0,0.1-0.1,0.2-0.4,1.4
	c-0.1,0.4-0.2,0.8-0.2,1.4v0.1c0,0.1,0,0.1,0,0.2c0,0,0,0,0.1,0.1c0.1,0,0.1-0.1,0.2-0.1c0.3-0.1,0.6-0.2,0.8-0.2
	c0.2-0.1,0.4-0.1,0.6-0.1l0,0c0.2,0,0.5,0,0.7,0l0,0c0.2,0,0.4,0.1,0.7,0.1c0.6,0.1,0.7,0.1,0.7,0.1l0,0c0,0,0,0,0.1,0
	s0.2-0.1,0.4-0.2c0.4-0.2,0.8-0.3,1.2-0.4l0,0c0.2,0,0.4,0,0.6,0s0.5,0,0.7,0.1l0,0c0.3,0.1,0.4,0.1,0.6,0.2c0.1,0,0.2,0.1,0.4,0.2
	c0.5,0.2,0.7,0.3,0.9,0.3c0.2,0,0.4,0,0.7-0.1c0.3-0.1,0.6-0.3,0.8-0.5c0.3-0.3,0.5-0.4,0.5-0.5V20c0-0.1,0-0.3,0-0.6v-0.6
	c0-0.2,0-0.3-0.1-0.5c0-0.1-0.1-0.3-0.1-0.6c0-0.2,0-0.4,0-0.5v-0.1c-0.1,0-0.2-0.1-0.3-0.2c-0.3-0.2-0.5-0.5-0.6-0.9
	c-0.1-0.2-0.1-0.3,0-0.5c0-0.1,0-0.3,0-0.5c0-0.1,0-0.2,0-0.3c0-0.4,0-0.7,0.4-1c0,0,0.1,0,0.1-0.1l0,0c0-0.2-0.1-0.6-0.1-1
	s0-0.8,0.1-1.1l0,0c0.3-0.8,0.9-1.2,1.3-1.5s0.9-0.5,1.3-0.6s0.8-0.2,1.2-0.2h0.1c0.4,0,0.8,0.1,1.2,0.2c0.5,0.1,1,0.4,1.4,0.6
	c0.5,0.3,1,0.8,1.3,1.5c0.1,0.3,0.1,0.7,0.1,1.2c0,0.4-0.1,0.7-0.1,1l0,0c0.1,0,0.1,0,0.2,0.1c0.3,0.2,0.3,0.6,0.3,1V15
	c0,0.3,0,0.4,0,0.5s0,0.3,0,0.4c-0.1,0.4-0.3,0.7-0.6,0.9l0,0c-0.1,0.1-0.2,0.1-0.3,0.2v0.1c0,0.1,0,0.3,0,0.5
	c0,0.3-0.1,0.4-0.1,0.6c0,0.1-0.1,0.2-0.1,0.5l0,0c0,0.1,0,0.1,0,0.2s0,0.2,0,0.4c0,0.3,0,0.5,0,0.6s0,0.1,0,0.1
	c0,0.1,0.2,0.2,0.5,0.5l0,0c0.3,0.2,0.6,0.4,0.9,0.5c0.2,0.1,0.4,0.1,0.6,0.1c0.1,0,0.4-0.1,0.8-0.3c0.1-0.1,0.2-0.1,0.3-0.2
	c0.2-0.1,0.4-0.2,0.7-0.3c0.2,0,0.4-0.1,0.6-0.1l0,0c0.2,0,0.4,0,0.7,0c0.4,0,0.9,0.2,1.2,0.3c0.2,0.1,0.3,0.1,0.4,0.2h0.1l0,0l0,0
	c0.1,0,0.3-0.1,0.6-0.1l0,0c0.2-0.1,0.5-0.1,0.7-0.1l0,0c0.2,0,0.5,0,0.7,0h0.1c0.1,0,0.1,0,0.6,0.1c0.3,0.1,0.6,0.1,0.9,0.2l0,0
	C38.9,21,39,21,39,21s0.1,0,0.1-0.1s0-0.2,0-0.3c0-0.4-0.1-0.9-0.2-1.4c-0.3-1.3-0.3-1.3-0.4-1.4l0,0c-0.1-0.5-0.3-0.9-0.5-1.2
	c-0.2-0.3-0.4-0.6-0.6-0.8l0,0c0-0.1-0.1-0.1-0.1-0.2c-0.1,0.1-0.2,0.2-0.4,0.2c-0.5,0.2-0.9,0-1.3-0.2c-0.3-0.1-0.6-0.3-0.9-0.5
	l0,0c-0.2-0.2-0.2-0.3-0.3-0.4c0-0.1-0.1-0.1-0.1-0.1c-0.1,0-0.1,0-0.2,0c-0.1,0-0.4,0-0.6-0.3c-0.4-0.5,0-1.3,0.1-1.5
	c0.1-0.3,0.3-0.4,1-1l0.1-0.1c0.6-0.5,0.9-0.7,1.3-0.8c0.2-0.1,0.5-0.1,0.7,0l0,0c0.4,0.1,0.8,0.3,1,0.6c0.3,0.3,0.4,0.4,0.6,0.5
	c0.2,0.1,0.4,0.3,0.8,0.7c0.6,0.6,1.1,1.3,1.6,2.1c0.4,0.6,0.7,1.1,1.1,1.6c0.1,0.1,0.2,0.3,0.3,0.4c0.7,1.2,1.1,1.8,1.7,3
	c0.4,0.8,0.7,1.6,0.9,2.5c0.1,0.4,0.1,0.7,0.1,1.1v0.1v0.1c-0.3,0.7-1,1-1.4,1.2c-1.1,0.5-1.5,0.8-1.9,1s-0.6,0.4-1.3,0.6
	c-0.9,0.3-1.6,0.6-2.5,0.7c-1,0.1-1.9,0.1-2.7-0.1c-0.2,0-0.4-0.1-0.5-0.1c-0.4-0.1-0.6-0.1-0.9-0.1c-0.3,0.1-0.6,0.3-0.9,0.6
	c-0.2,0.3-0.2,0.6-0.2,1.3c0,0.1,0,0.3,0,0.4c0,0.7-0.1,0.9-0.1,1.2c-0.1,0.3-0.1,0.6-0.2,1.3c-0.2,1.3-0.2,2-0.2,3.2v0.4
	c0,0.6,0,0.9-0.1,1.4c0,0.5-0.1,0.7-0.1,1c0,0.2-0.1,0.4-0.1,0.9c0,0.3-0.1,0.6-0.1,0.8c0,0.6-0.1,0.9-0.4,1.2
	c-0.4,0.4-0.7,0.4-1.4,0.4c-0.1,0-0.3,0-0.5,0c-0.7,0-1,0-1.3,0.1c-0.3,0-0.7,0.1-1.5,0.1c-0.4,0-0.9,0-1.5,0C24.5,41,24,41,23.6,41
	z M16.4,26.1c0.2,0,0.4,0,0.6,0.1c0.6,0.2,1,0.5,1.4,1c0.4,0.6,0.4,1.1,0.4,1.8c0,0.1,0,0.3,0,0.4c0,0.6,0.1,0.8,0.1,1.1
	c0.1,0.3,0.1,0.6,0.2,1.5c0.1,0.9,0.1,1.6,0.1,2.8c0,0.3,0,0.5,0,0.7c0,0.4,0,0.6,0,1c0,0.5,0.1,0.6,0.1,0.9c0,0.2,0.1,0.5,0.1,1
	c0,0.3,0.1,0.6,0.1,0.8c0,0.5,0,0.6,0.1,0.6c0.1,0.1,0.3,0.1,0.8,0.1c0.1,0,0.3,0,0.4,0c0.8,0,1.1,0,1.4,0.1c0.3,0,0.6,0.1,1.4,0.1
	c0.4,0,0.9,0,1.5,0l0,0l0,0c0.6,0,1,0,1.5,0c0.7,0,1,0,1.4-0.1c0.3,0,0.7-0.1,1.4-0.1c0.2,0,0.4,0,0.5,0c0.5,0,0.6,0,0.7-0.1
	c0,0,0.1-0.1,0.1-0.6c0-0.2,0-0.5,0.1-0.8c0-0.5,0.1-0.7,0.1-1c0-0.2,0.1-0.4,0.1-0.9s0-0.7,0.1-1.4v-0.4c0-1.2,0-1.9,0.1-2.8
	c0.1-0.8,0.1-1.2,0.2-1.5s0.1-0.5,0.1-1.1c0-0.2,0-0.3,0-0.4c0-0.7,0-1.2,0.4-1.8c0.3-0.5,0.8-0.8,1.4-1s1-0.1,1.4,0
	c0.1,0,0.3,0.1,0.5,0.1c0.8,0.1,1.5,0.2,2.4,0.1c0.8-0.1,1.4-0.3,2.3-0.6c0.6-0.2,0.8-0.3,1.1-0.5s0.8-0.5,2-1.1
	c0.4-0.2,0.7-0.3,0.9-0.6c0-0.3,0-0.5-0.1-0.7l0,0c-0.2-0.8-0.5-1.6-0.8-2.3c-0.6-1.2-1-1.8-1.6-3c-0.1-0.2-0.2-0.3-0.3-0.4
	c-0.3-0.6-0.6-1-1-1.6l0,0c-0.5-0.7-1-1.4-1.5-1.9c-0.4-0.4-0.5-0.5-0.6-0.6c-0.2-0.1-0.3-0.2-0.7-0.6l0,0c-0.1-0.1-0.3-0.3-0.5-0.3
	c-0.1,0-0.2,0-0.3,0c-0.2,0-0.3,0.1-0.9,0.6l-0.1,0.1c-0.6,0.5-0.7,0.6-0.8,0.7l0,0c0,0.1-0.1,0.2-0.1,0.3c0.1,0,0.3,0.1,0.4,0.2
	c0.2,0.2,0.3,0.3,0.4,0.4c0,0.1,0.1,0.1,0.1,0.2c0.2,0.1,0.3,0.2,0.5,0.3l0,0c0.4,0.1,0.6,0.2,0.7,0.2c0.1,0,0.1-0.1,0.2-0.1
	c0.1-0.1,0.3-0.3,0.7-0.3c0.3,0,0.5,0.3,0.6,0.5c0,0.1,0.1,0.1,0.1,0.2c0.2,0.3,0.4,0.6,0.6,0.9l0,0c0.2,0.4,0.4,0.9,0.6,1.4
	c0,0.1,0.1,0.2,0.4,1.5c0.1,0.6,0.2,1.1,0.2,1.5c0,0.3,0,0.6-0.2,0.8l0,0c-0.2,0.3-0.6,0.6-1,0.6c-0.2,0-0.3-0.1-0.4-0.1
	c0,0-0.1,0-0.1-0.1c-0.2-0.1-0.5-0.1-0.7-0.2l0,0c-0.4-0.1-0.4-0.1-0.5-0.1c-0.2,0-0.3,0-0.5,0s-0.4,0.1-0.6,0.1H36
	c-0.7,0.2-0.8,0.2-1,0.2s-0.3-0.1-0.4-0.1c-0.1,0-0.2-0.1-0.4-0.2l0,0c-0.3-0.1-0.6-0.2-0.9-0.3c-0.1,0-0.3,0-0.5,0h-0.1
	c-0.2,0-0.4,0-0.5,0.1c-0.1,0-0.2,0.1-0.4,0.2c-0.1,0-0.2,0.1-0.4,0.2c-0.5,0.2-0.9,0.4-1.2,0.4c-0.4,0-0.8,0-1.1-0.2
	c-0.4-0.1-0.8-0.4-1.1-0.7c-0.5-0.4-0.7-0.6-0.9-1l0,0c0-0.2,0-0.3,0-0.4s0-0.3,0-0.6c0-0.2,0-0.3,0-0.3c0-0.1,0-0.2,0-0.3
	c0-0.3,0.1-0.5,0.1-0.7c0-0.1,0.1-0.2,0.1-0.4c0-0.2,0-0.3,0-0.4c0-0.2,0-0.5,0.2-0.8c0.1-0.2,0.3-0.2,0.4-0.3c0,0,0.1,0,0.1-0.1
	c0.2-0.1,0.3-0.3,0.3-0.4l0,0l0,0c0,0,0,0,0-0.1s0-0.3,0-0.6v-0.2v-0.1c-0.1,0-0.1,0-0.2-0.1l0,0c-0.4-0.3-0.3-0.7-0.2-1.2
	c0-0.2,0.1-0.5,0.1-0.8l0,0c0-0.3,0-0.6,0-0.7c-0.2-0.5-0.5-0.7-0.9-1c-0.3-0.2-0.7-0.4-1.1-0.5c-0.3-0.1-0.6-0.1-0.9-0.1H25
	c-0.3,0-0.6,0-0.9,0.1c-0.4,0.1-0.7,0.3-1.1,0.5c-0.4,0.3-0.8,0.5-0.9,1c-0.1,0.3-0.1,0.5,0,0.8l0,0c0,0.3,0.1,0.6,0.1,0.9
	c0.1,0.4,0.2,0.8-0.2,1.1l0,0c-0.1,0-0.2,0.1-0.2,0.1c0,0.1,0,0.2,0,0.3c0,0.3,0,0.5,0,0.6v0.1c0.1,0.2,0.2,0.3,0.3,0.5
	c0.1,0.1,0.1,0.1,0.1,0.1c0.1,0,0.2,0.1,0.3,0.2c0.2,0.3,0.2,0.5,0.2,0.8c0,0.1,0,0.2,0,0.4c0,0.2,0,0.3,0.1,0.4
	c0,0.2,0.1,0.3,0.1,0.7v0.6c0,0.3,0,0.5,0,0.6c0,0.2,0,0.3,0,0.4l0,0c-0.1,0.4-0.4,0.6-0.9,1c-0.4,0.3-0.7,0.5-1.1,0.7
	c-0.4,0.1-0.7,0.2-1.1,0.2c-0.3,0-0.6-0.2-1.2-0.4c-0.2-0.1-0.3-0.1-0.4-0.2c-0.2-0.1-0.3-0.1-0.4-0.2c-0.2,0-0.4-0.1-0.5-0.1h-0.1
	c-0.1,0-0.3,0-0.4,0c-0.4,0.1-0.7,0.1-0.9,0.3l0,0c-0.2,0.1-0.3,0.1-0.3,0.2C15.4,22,15.3,22,15.1,22s-0.3,0-1-0.2
	c-0.2-0.1-0.4-0.1-0.6-0.1c-0.2,0-0.3,0-0.5,0s-0.3,0.1-0.5,0.1h-0.1c-0.3,0.1-0.5,0.1-0.7,0.2c-0.1,0-0.1,0.1-0.2,0.1
	c-0.1,0-0.2,0.1-0.3,0.1h-0.1c-0.4,0-0.8-0.2-1-0.6c-0.2-0.3-0.2-0.6-0.2-0.9c0-0.4,0.1-1,0.2-1.5c0.3-1.3,0.3-1.4,0.4-1.5
	c0.1-0.5,0.3-1,0.6-1.4c0.2-0.3,0.4-0.6,0.6-0.9c0.1-0.1,0.1-0.2,0.2-0.2c0.1-0.2,0.3-0.4,0.6-0.5l0,0c0.4-0.1,0.6,0.1,0.7,0.3
	c0.1,0.1,0.1,0.1,0.2,0.1c0.1,0,0.3,0,0.7-0.2l0,0c0.2-0.1,0.4-0.2,0.5-0.3s0.1-0.1,0.2-0.2c0.1-0.1,0.2-0.3,0.4-0.4
	c0.2-0.1,0.3-0.2,0.4-0.2c0-0.1-0.1-0.2-0.1-0.3l0,0c0-0.1-0.1-0.2-0.8-0.7l-0.1-0.1c-0.6-0.5-0.7-0.6-0.9-0.6c-0.1,0-0.2,0-0.3,0
	c-0.2,0.1-0.4,0.2-0.5,0.3l0,0c-0.4,0.4-0.6,0.5-0.7,0.6c-0.1,0.1-0.2,0.2-0.6,0.6c-0.6,0.6-1.1,1.3-1.5,1.9S9.4,16.6,9,17.2
	l-0.2,0.3c-0.7,1.1-1,1.7-1.5,2.8l-0.1,0.2c-0.4,0.7-0.6,1.5-0.8,2.3c-0.1,0.3-0.1,0.5,0,0.7c0.1,0.3,0.4,0.5,0.9,0.7
	c1.2,0.6,1.6,0.8,2,1.1c0.3,0.2,0.5,0.3,1.1,0.6c0.9,0.3,1.5,0.5,2.3,0.6s1.6,0.1,2.4-0.1c0.2,0,0.3-0.1,0.5-0.1
	C15.8,26.1,16.1,26.1,16.4,26.1z"/>
</svg>
