<?xml version="1.0" encoding="utf-8"?>
<!-- Generator: Adobe Illustrator 25.2.1, SVG Export Plug-In . SVG Version: 6.00 Build 0)  -->
<svg version="1.1" id="Warstwa_1" xmlns="http://www.w3.org/2000/svg" xmlns:xlink="http://www.w3.org/1999/xlink" x="0px" y="0px"
	 viewBox="0 0 50 50" style="enable-background:new 0 0 50 50;" xml:space="preserve">
<style type="text/css">
	.st0{fill:#0095BE;}
	.st1{fill:#FFFFFF;}
</style>
<g>
	<circle class="st0" cx="25" cy="25" r="25"/>
	<path class="st1" d="M23.6,41c-0.8,0-1.1,0-1.5-0.1c-0.3,0-0.6-0.1-1.3-0.1c-0.2,0-0.3,0-0.4,0c-0.7,0-1.1,0-1.5-0.4
		c-0.3-0.3-0.3-0.6-0.4-1.3c0-0.2,0-0.5-0.1-0.8c0-0.5-0.1-0.7-0.1-0.9c0-0.2-0.1-0.5-0.1-1c0-0.4,0-0.7-0.1-1.1c0-0.2,0-0.4,0-0.7
		c0-1.2,0-1.9-0.1-2.8c-0.1-0.8-0.1-1.1-0.2-1.3c-0.1-0.3-0.1-0.6-0.1-1.2c0-0.1,0-0.3,0-0.4c0-0.6,0-0.9-0.3-1.3
		c-0.2-0.3-0.5-0.5-0.9-0.6c-0.3-0.1-0.5,0-0.9,0.1c-0.2,0-0.3,0.1-0.5,0.1c-0.9,0.2-1.8,0.2-2.7,0.1c-1-0.1-1.6-0.4-2.5-0.7
		c-0.7-0.3-1-0.4-1.3-0.6c-0.3-0.2-0.8-0.5-1.9-1c-0.5-0.2-1.1-0.5-1.4-1.2l0,0c-0.1-0.4-0.1-0.8,0-1.2c0.2-0.9,0.5-1.8,0.9-2.5
		l0.1-0.2C6.9,18.8,7.3,18.1,8,17l0.2-0.3c0.4-0.6,0.7-1.1,1.1-1.8c0.4-0.7,1-1.4,1.6-2c0.4-0.4,0.6-0.6,0.8-0.7
		c0.1-0.1,0.2-0.2,0.6-0.5c0.3-0.3,0.6-0.5,1-0.6l0,0c0.3-0.1,0.5-0.1,0.8,0c0.4,0.1,0.7,0.3,1.3,0.8l0.1,0.1c0.7,0.6,0.9,0.7,1,1
		c0.1,0.2,0.5,0.9,0.1,1.5l0,0c-0.2,0.2-0.4,0.3-0.6,0.3c-0.1,0-0.1,0-0.1,0c0,0,0,0-0.1,0.1c-0.1,0.1-0.1,0.2-0.3,0.4
		c-0.2,0.2-0.5,0.4-0.9,0.5c-0.5,0.2-0.9,0.3-1.3,0.2c-0.2-0.1-0.3-0.1-0.4-0.2c0,0.1-0.1,0.1-0.1,0.2c-0.2,0.3-0.4,0.6-0.6,0.8
		c-0.2,0.4-0.4,0.8-0.5,1.2l0,0c0,0.1-0.1,0.2-0.4,1.4c-0.1,0.4-0.2,0.8-0.2,1.4l0,0.1c0,0.1,0,0.1,0,0.2c0,0,0,0,0.1,0.1
		c0.1,0,0.1-0.1,0.2-0.1c0.3-0.1,0.6-0.2,0.8-0.2c0.2-0.1,0.4-0.1,0.6-0.1l0,0c0.2,0,0.5,0,0.7,0l0,0c0.2,0,0.4,0.1,0.7,0.1
		c0.6,0.1,0.7,0.1,0.7,0.1c0,0,0,0,0,0c0,0,0,0,0.1,0c0.1,0,0.2-0.1,0.4-0.2c0.4-0.2,0.8-0.3,1.2-0.4l0,0c0.2,0,0.4,0,0.6,0
		c0.2,0,0.5,0,0.7,0.1l0,0c0.3,0.1,0.4,0.1,0.6,0.2c0.1,0,0.2,0.1,0.4,0.2c0.5,0.2,0.7,0.3,0.9,0.3c0.2,0,0.4,0,0.7-0.1
		c0.3-0.1,0.6-0.3,0.8-0.5c0.3-0.3,0.5-0.4,0.5-0.5c0,0,0-0.1,0-0.1c0-0.1,0-0.3,0-0.6v-0.6c0-0.2,0-0.3-0.1-0.5
		c0-0.1-0.1-0.3-0.1-0.6c0-0.2,0-0.4,0-0.5c0,0,0-0.1,0-0.1c-0.1,0-0.2-0.1-0.3-0.2c-0.3-0.2-0.5-0.5-0.6-0.9
		c-0.1-0.2-0.1-0.3,0-0.5c0-0.1,0-0.3,0-0.5c0-0.1,0-0.2,0-0.3c0-0.4,0-0.7,0.4-1c0,0,0.1,0,0.1-0.1c0,0,0,0,0,0
		c0-0.2-0.1-0.6-0.1-1c0-0.4,0-0.8,0.1-1.1l0,0c0.3-0.8,0.9-1.2,1.3-1.5c0.4-0.3,0.9-0.5,1.3-0.6c0.4-0.1,0.8-0.2,1.2-0.2h0.1
		c0.4,0,0.8,0.1,1.2,0.2c0.5,0.1,1,0.4,1.4,0.6c0.5,0.3,1,0.8,1.3,1.5c0.1,0.3,0.1,0.7,0.1,1.2c0,0.4-0.1,0.7-0.1,1c0,0,0,0,0,0
		c0.1,0,0.1,0,0.2,0.1c0.3,0.2,0.3,0.6,0.3,1l0,0.2c0,0.3,0,0.4,0,0.5c0,0.1,0,0.3,0,0.4c-0.1,0.4-0.3,0.7-0.6,0.9l0,0
		c-0.1,0.1-0.2,0.1-0.3,0.2c0,0,0,0.1,0,0.1c0,0.1,0,0.3,0,0.5c0,0.3-0.1,0.4-0.1,0.6c0,0.1-0.1,0.2-0.1,0.5l0,0c0,0.1,0,0.1,0,0.2
		c0,0.1,0,0.2,0,0.4c0,0.3,0,0.5,0,0.6c0,0.1,0,0.1,0,0.1c0,0.1,0.2,0.2,0.5,0.5l0,0c0.3,0.2,0.6,0.4,0.9,0.5
		c0.2,0.1,0.4,0.1,0.6,0.1c0.1,0,0.4-0.1,0.8-0.3c0.1-0.1,0.2-0.1,0.3-0.2c0.2-0.1,0.4-0.2,0.7-0.3c0.2,0,0.4-0.1,0.6-0.1l0,0
		c0.2,0,0.4,0,0.7,0c0.4,0,0.9,0.2,1.2,0.3c0.2,0.1,0.3,0.1,0.4,0.2c0,0,0.1,0,0.1,0c0,0,0,0,0,0l0,0c0.1,0,0.3-0.1,0.6-0.1l0,0
		c0.2-0.1,0.5-0.1,0.7-0.1l0,0c0.2,0,0.5,0,0.7,0l0.1,0c0.1,0,0.1,0,0.6,0.1c0.3,0.1,0.6,0.1,0.9,0.2l0,0C38.9,21,39,21,39,21
		c0,0,0.1,0,0.1-0.1c0-0.1,0-0.2,0-0.3c0-0.4-0.1-0.9-0.2-1.4c-0.3-1.3-0.3-1.3-0.4-1.4l0,0c-0.1-0.5-0.3-0.9-0.5-1.2
		c-0.2-0.3-0.4-0.6-0.6-0.8l0,0c0-0.1-0.1-0.1-0.1-0.2c-0.1,0.1-0.2,0.2-0.4,0.2c-0.5,0.2-0.9,0-1.3-0.2c-0.3-0.1-0.6-0.3-0.9-0.5
		l0,0c-0.2-0.2-0.2-0.3-0.3-0.4c0-0.1-0.1-0.1-0.1-0.1c-0.1,0-0.1,0-0.2,0c-0.1,0-0.4,0-0.6-0.3c-0.4-0.5,0-1.3,0.1-1.5
		c0.1-0.3,0.3-0.4,1-1l0.1-0.1c0.6-0.5,0.9-0.7,1.3-0.8c0.2-0.1,0.5-0.1,0.7,0l0,0c0.4,0.1,0.8,0.3,1,0.6c0.3,0.3,0.4,0.4,0.6,0.5
		c0.2,0.1,0.4,0.3,0.8,0.7c0.6,0.6,1.1,1.3,1.6,2.1c0.4,0.6,0.7,1.1,1.1,1.6c0.1,0.1,0.2,0.3,0.3,0.4c0.7,1.2,1.1,1.8,1.7,3
		c0.4,0.8,0.7,1.6,0.9,2.5c0.1,0.4,0.1,0.7,0.1,1.1v0.1l0,0.1c-0.3,0.7-1,1-1.4,1.2c-1.1,0.5-1.5,0.8-1.9,1
		c-0.4,0.2-0.6,0.4-1.3,0.6c-0.9,0.3-1.6,0.6-2.5,0.7c-1,0.1-1.9,0.1-2.7-0.1c-0.2,0-0.4-0.1-0.5-0.1c-0.4-0.1-0.6-0.1-0.9-0.1
		c-0.3,0.1-0.6,0.3-0.9,0.6c-0.2,0.3-0.2,0.6-0.2,1.3c0,0.1,0,0.3,0,0.4c0,0.7-0.1,0.9-0.1,1.2c-0.1,0.3-0.1,0.6-0.2,1.3
		C32,32.9,32,33.6,32,34.8l0,0.4c0,0.6,0,0.9-0.1,1.4c0,0.5-0.1,0.7-0.1,1c0,0.2-0.1,0.4-0.1,0.9c0,0.3-0.1,0.6-0.1,0.8
		c0,0.6-0.1,0.9-0.4,1.2c-0.4,0.4-0.7,0.4-1.4,0.4c-0.1,0-0.3,0-0.5,0c-0.7,0-1,0-1.3,0.1c-0.3,0-0.7,0.1-1.5,0.1
		c-0.4,0-0.9,0-1.5,0C24.5,41,24,41,23.6,41z M16.4,26.1c0.2,0,0.4,0,0.6,0.1c0.6,0.2,1,0.5,1.4,1c0.4,0.6,0.4,1.1,0.4,1.8
		c0,0.1,0,0.3,0,0.4c0,0.6,0.1,0.8,0.1,1.1c0.1,0.3,0.1,0.6,0.2,1.5c0.1,0.9,0.1,1.6,0.1,2.8c0,0.3,0,0.5,0,0.7c0,0.4,0,0.6,0,1
		c0,0.5,0.1,0.6,0.1,0.9c0,0.2,0.1,0.5,0.1,1c0,0.3,0.1,0.6,0.1,0.8c0,0.5,0,0.6,0.1,0.6c0.1,0.1,0.3,0.1,0.8,0.1c0.1,0,0.3,0,0.4,0
		c0.8,0,1.1,0,1.4,0.1c0.3,0,0.6,0.1,1.4,0.1c0.4,0,0.9,0,1.5,0l0,0l0,0c0.6,0,1,0,1.5,0c0.7,0,1,0,1.4-0.1c0.3,0,0.7-0.1,1.4-0.1
		c0.2,0,0.4,0,0.5,0c0.5,0,0.6,0,0.7-0.1c0,0,0.1-0.1,0.1-0.6c0-0.2,0-0.5,0.1-0.8c0-0.5,0.1-0.7,0.1-1c0-0.2,0.1-0.4,0.1-0.9
		c0-0.5,0-0.7,0.1-1.4l0-0.4c0-1.2,0-1.9,0.1-2.8c0.1-0.8,0.1-1.2,0.2-1.5c0.1-0.3,0.1-0.5,0.1-1.1c0-0.2,0-0.3,0-0.4
		c0-0.7,0-1.2,0.4-1.8c0.3-0.5,0.8-0.8,1.4-1c0.6-0.2,1-0.1,1.4,0c0.1,0,0.3,0.1,0.5,0.1c0.8,0.1,1.5,0.2,2.4,0.1
		c0.8-0.1,1.4-0.3,2.3-0.6c0.6-0.2,0.8-0.3,1.1-0.5c0.3-0.2,0.8-0.5,2-1.1c0.4-0.2,0.7-0.3,0.9-0.6c0-0.3,0-0.5-0.1-0.7l0,0
		c-0.2-0.8-0.5-1.6-0.8-2.3c-0.6-1.2-1-1.8-1.6-3c-0.1-0.2-0.2-0.3-0.3-0.4c-0.3-0.6-0.6-1-1-1.6l0,0c-0.5-0.7-1-1.4-1.5-1.9
		c-0.4-0.4-0.5-0.5-0.6-0.6c-0.2-0.1-0.3-0.2-0.7-0.6l0,0c-0.1-0.1-0.3-0.3-0.5-0.3c-0.1,0-0.2,0-0.3,0c-0.2,0-0.3,0.1-0.9,0.6
		l-0.1,0.1c-0.6,0.5-0.7,0.6-0.8,0.7l0,0c0,0.1-0.1,0.2-0.1,0.3c0.1,0,0.3,0.1,0.4,0.2c0.2,0.2,0.3,0.3,0.4,0.4
		c0,0.1,0.1,0.1,0.1,0.2c0.2,0.1,0.3,0.2,0.5,0.3l0,0c0.4,0.1,0.6,0.2,0.7,0.2c0.1,0,0.1-0.1,0.2-0.1c0.1-0.1,0.3-0.3,0.7-0.3
		c0.3,0,0.5,0.3,0.6,0.5c0,0.1,0.1,0.1,0.1,0.2c0.2,0.3,0.4,0.6,0.6,0.9l0,0c0.2,0.4,0.4,0.9,0.6,1.4c0,0.1,0.1,0.2,0.4,1.5
		c0.1,0.6,0.2,1.1,0.2,1.5c0,0.3,0,0.6-0.2,0.8l0,0c-0.2,0.3-0.6,0.6-1,0.6c-0.2,0-0.3-0.1-0.4-0.1c0,0-0.1,0-0.1-0.1
		c-0.2-0.1-0.5-0.1-0.7-0.2l0,0c-0.4-0.1-0.4-0.1-0.5-0.1c-0.2,0-0.3,0-0.5,0c-0.2,0-0.4,0.1-0.6,0.1l-0.1,0c-0.7,0.2-0.8,0.2-1,0.2
		c-0.2,0-0.3-0.1-0.4-0.1c-0.1,0-0.2-0.1-0.4-0.2l0,0c-0.3-0.1-0.6-0.2-0.9-0.3c-0.1,0-0.3,0-0.5,0l-0.1,0c-0.2,0-0.4,0-0.5,0.1
		c-0.1,0-0.2,0.1-0.4,0.2c-0.1,0-0.2,0.1-0.4,0.2c-0.5,0.2-0.9,0.4-1.2,0.4c-0.4,0-0.8,0-1.1-0.2c-0.4-0.1-0.8-0.4-1.1-0.7
		c-0.5-0.4-0.7-0.6-0.9-1l0,0c0-0.2,0-0.3,0-0.4c0-0.1,0-0.3,0-0.6c0-0.2,0-0.3,0-0.3c0-0.1,0-0.2,0-0.3c0-0.3,0.1-0.5,0.1-0.7
		c0-0.1,0.1-0.2,0.1-0.4c0-0.2,0-0.3,0-0.4c0-0.2,0-0.5,0.2-0.8c0.1-0.2,0.3-0.2,0.4-0.3c0,0,0.1,0,0.1-0.1c0.2-0.1,0.3-0.3,0.3-0.4
		l0,0c0,0,0,0,0,0c0,0,0,0,0-0.1c0-0.1,0-0.3,0-0.6l0-0.2c0,0,0-0.1,0-0.1c-0.1,0-0.1,0-0.2-0.1l0,0c-0.4-0.3-0.3-0.7-0.2-1.2
		c0-0.2,0.1-0.5,0.1-0.8l0,0c0-0.3,0-0.6,0-0.7c-0.2-0.5-0.5-0.7-0.9-1c-0.3-0.2-0.7-0.4-1.1-0.5c-0.3-0.1-0.6-0.1-0.9-0.1H25
		c-0.3,0-0.6,0-0.9,0.1c-0.4,0.1-0.7,0.3-1.1,0.5c-0.4,0.3-0.8,0.5-0.9,1c-0.1,0.3-0.1,0.5,0,0.8l0,0c0,0.3,0.1,0.6,0.1,0.9
		c0.1,0.4,0.2,0.8-0.2,1.1l0,0c-0.1,0-0.2,0.1-0.2,0.1c0,0.1,0,0.2,0,0.3c0,0.3,0,0.5,0,0.6c0,0,0,0.1,0,0.1
		c0.1,0.2,0.2,0.3,0.3,0.5c0.1,0.1,0.1,0.1,0.1,0.1c0.1,0,0.2,0.1,0.3,0.2c0.2,0.3,0.2,0.5,0.2,0.8c0,0.1,0,0.2,0,0.4
		c0,0.2,0,0.3,0.1,0.4c0,0.2,0.1,0.3,0.1,0.7l0,0.6c0,0.3,0,0.5,0,0.6c0,0.2,0,0.3,0,0.4l0,0c-0.1,0.4-0.4,0.6-0.9,1
		c-0.4,0.3-0.7,0.5-1.1,0.7c-0.4,0.1-0.7,0.2-1.1,0.2c-0.3,0-0.6-0.2-1.2-0.4c-0.2-0.1-0.3-0.1-0.4-0.2c-0.2-0.1-0.3-0.1-0.4-0.2
		c-0.2,0-0.4-0.1-0.5-0.1l-0.1,0c-0.1,0-0.3,0-0.4,0c-0.4,0.1-0.7,0.1-0.9,0.3l0,0c-0.2,0.1-0.3,0.1-0.3,0.2
		c-0.2,0.1-0.3,0.1-0.5,0.1c-0.2,0-0.3,0-1-0.2c-0.2-0.1-0.4-0.1-0.6-0.1c-0.2,0-0.3,0-0.5,0c-0.2,0-0.3,0.1-0.5,0.1l-0.1,0
		c-0.3,0.1-0.5,0.1-0.7,0.2c-0.1,0-0.1,0.1-0.2,0.1c-0.1,0-0.2,0.1-0.3,0.1l-0.1,0c-0.4,0-0.8-0.2-1-0.6c-0.2-0.3-0.2-0.6-0.2-0.9
		c0-0.4,0.1-1,0.2-1.5c0.3-1.3,0.3-1.4,0.4-1.5c0.1-0.5,0.3-1,0.6-1.4c0.2-0.3,0.4-0.6,0.6-0.9c0.1-0.1,0.1-0.2,0.2-0.2
		c0.1-0.2,0.3-0.4,0.6-0.5l0,0c0.4-0.1,0.6,0.1,0.7,0.3c0.1,0.1,0.1,0.1,0.2,0.1c0.1,0,0.3,0,0.7-0.2l0,0c0.2-0.1,0.4-0.2,0.5-0.3
		c0.1-0.1,0.1-0.1,0.2-0.2c0.1-0.1,0.2-0.3,0.4-0.4c0.2-0.1,0.3-0.2,0.4-0.2c0-0.1-0.1-0.2-0.1-0.3l0,0c0-0.1-0.1-0.2-0.8-0.7
		l-0.1-0.1c-0.6-0.5-0.7-0.6-0.9-0.6c-0.1,0-0.2,0-0.3,0c-0.2,0.1-0.4,0.2-0.5,0.3l0,0c-0.4,0.4-0.6,0.5-0.7,0.6
		c-0.1,0.1-0.2,0.2-0.6,0.6c-0.6,0.6-1.1,1.3-1.5,1.9c-0.4,0.6-0.7,1.1-1.1,1.7l-0.2,0.3c-0.7,1.1-1,1.7-1.5,2.8l-0.1,0.2
		c-0.4,0.7-0.6,1.5-0.8,2.3c-0.1,0.3-0.1,0.5,0,0.7c0.1,0.3,0.4,0.5,0.9,0.7c1.2,0.6,1.6,0.8,2,1.1c0.3,0.2,0.5,0.3,1.1,0.6
		c0.9,0.3,1.5,0.5,2.3,0.6c0.8,0.1,1.6,0.1,2.4-0.1c0.2,0,0.3-0.1,0.5-0.1C15.8,26.1,16.1,26.1,16.4,26.1z"/>
</g>
</svg>
